<svg xmlns="http://www.w3.org/2000/svg" viewBox="0 0 162.82 162.82"><defs><style>.cls-1{fill:#6b90b8;}.cls-2{fill:#547aa2;}</style></defs><title>ButtonBlue</title><g id="Lager_2" data-name="Lager 2"><g id="Lager_1-2" data-name="Lager 1"><path class="cls-1" d="M150.82,162.82H12a11.93,11.93,0,0,1-4.59-.91,12.06,12.06,0,0,1-6.49-6.5A11.86,11.86,0,0,1,0,150.82V12A11.94,11.94,0,0,1,.92,7.41,12.09,12.09,0,0,1,7.41.92,11.94,11.94,0,0,1,12,0H150.82a11.86,11.86,0,0,1,4.59.92,12.15,12.15,0,0,1,6.5,6.49,11.93,11.93,0,0,1,.91,4.59V150.82a11.86,11.86,0,0,1-.91,4.59,12.12,12.12,0,0,1-6.5,6.5A11.86,11.86,0,0,1,150.82,162.82Z"/><rect class="cls-2" x="17" y="16.82" width="129" height="129" rx="12"/></g></g></svg>