<svg xmlns="http://www.w3.org/2000/svg" viewBox="0 0 81 95.16"><defs><style>.cls-1{fill:#fff;}</style></defs><title>ContactsIcon</title><g id="Lager_2" data-name="Lager 2"><g id="Lager_1-2" data-name="Lager 1"><ellipse class="cls-1" cx="25.17" cy="19.66" rx="14.94" ry="19.66"/><path class="cls-1" d="M81,92.15c0,1,0,2-.08,3H54.15c.07-1.34.11-2.7.11-4.08a69.19,69.19,0,0,0-3.91-23.51c3.25-4.86,7.47-7.8,12.08-7.8C72.69,59.77,81,74.26,81,92.15Z"/><path class="cls-1" d="M46.42,67.57C42,55.32,34.11,47.18,25.17,47.18,11.27,47.18,0,66.84,0,91.08c0,1.38,0,2.74.11,4.08H50.22c.07-1.34.11-2.7.11-4.08A69.19,69.19,0,0,0,46.42,67.57Z"/><ellipse class="cls-1" cx="62.13" cy="39.32" rx="10.22" ry="13.45"/></g></g></svg>