<svg xmlns="http://www.w3.org/2000/svg" viewBox="0 0 108.3 114.54"><defs><style>.cls-1{fill:#fff;}</style></defs><title>MapIcon</title><g id="Lager_2" data-name="Lager 2"><g id="Lager_1-2" data-name="Lager 1"><path class="cls-1" d="M53.92,0A23.11,23.11,0,0,0,30.81,23.11c0,5.43,11.57,19.4,14.1,22.31,3.42,3.95,6.81,21.34,9,21.34s5.64-17.41,9-21.36C65.49,42.48,77,28.52,77,23.11A23.11,23.11,0,0,0,53.92,0Zm.65,36.59A14.12,14.12,0,1,1,68.69,22.47,14.12,14.12,0,0,1,54.57,36.59Z"/><path class="cls-1" d="M108.3,109.25c0,2.93-3.21,5.29-7.17,5.29h-94c-3.95,0-7.16-2.36-7.16-5.29L23.27,39.88c0-1.23,1.82-2.23,4.07-2.23h4.08A164,164,0,0,0,42.75,51.12C47,55.6,51.19,75.33,53.92,75.33s7-19.76,11.2-24.24A163.58,163.58,0,0,0,76.41,37.65H81c2.25,0,4.08,1,4.08,2.23Z"/></g></g></svg>