<svg xmlns="http://www.w3.org/2000/svg" viewBox="0 0 106.06 64.81"><defs><style>.cls-1{fill:#fff;}</style></defs><title>MessagesIcon</title><g id="Lager_2" data-name="Lager 2"><g id="Lager_1-2" data-name="Lager 1"><path class="cls-1" d="M30.81,31.45,1.29,4.14C.77,3.66,0,4.09,0,4.87V60.08c0,.75.73,1.19,1.26.76l29.38-24A3.57,3.57,0,0,0,30.81,31.45Z"/><path class="cls-1" d="M104.77,4.14,75.25,31.45a3.57,3.57,0,0,0,.17,5.4l29.39,24c.52.43,1.25,0,1.25-.76V4.87C106.06,4.09,105.29,3.66,104.77,4.14Z"/><path class="cls-1" d="M37.24,32,50.78,44.47a3.3,3.3,0,0,0,4.5,0L68.82,32,101.73,1.66c.6-.55.27-1.66-.49-1.66H4.82c-.75,0-1.09,1.11-.49,1.66Z"/><path class="cls-1" d="M101.51,63.12,71.08,37.82a3.32,3.32,0,0,0-4.4.14L55.31,48.67a3.34,3.34,0,0,1-4.56,0L39.38,38A3.31,3.31,0,0,0,35,37.82L4.56,63.12c-.64.53-.32,1.69.46,1.69h96C101.82,64.81,102.14,63.65,101.51,63.12Z"/></g></g></svg>