<svg xmlns="http://www.w3.org/2000/svg" viewBox="0 0 270.95 489"><defs><style>.cls-1{fill:#251f1f;}.cls-2{fill:#c9bcb0;}.cls-3{fill:none;stroke:#fef8e8;stroke-miterlimit:10;}.cls-4{fill:#e4a867;}.cls-5{opacity:0.5;}.cls-6{fill:#f7eae3;}.cls-7{fill:#fefefe;}.cls-8{fill:#a39f9c;}.cls-9{fill:#c42170;}.cls-10{fill:#51a1c0;}.cls-11{fill:#b4c852;}.cls-12{fill:#b49faf;}.cls-13{fill:#b1b0af;}.cls-14{fill:#b8a3b2;}.cls-15{fill:#b6a2b1;}.cls-16{fill:#b8a4b2;}.cls-17{fill:#b0b0af;}.cls-18{fill:#b9b7b5;}.cls-19{fill:#b5a0b0;}.cls-20{fill:#b8b7b5;}.cls-21{fill:#b2b1b0;}.cls-22{fill:#b3b2b1;}.cls-23{fill:#b2b2b1;}.cls-24{fill:#b6b5b3;}.cls-25{fill:#b6b4b3;}.cls-26{fill:#b5b4b2;}.cls-27{fill:#b5b4b3;}.cls-28{fill:#b0b0ae;}.cls-29{fill:#b2b2b0;}.cls-30{fill:#b1b1b0;}.cls-31{fill:#b3b3b1;}.cls-32{fill:#b7b5b4;}</style></defs><title>PhoneBackground</title><g id="Lager_2" data-name="Lager 2"><g id="Lager_1-2" data-name="Lager 1"><path class="cls-1" d="M259.44,0H11.5A11.54,11.54,0,0,0,0,11.5v466A11.54,11.54,0,0,0,11.5,489H259.44A11.54,11.54,0,0,0,271,477.5V11.5A11.54,11.54,0,0,0,259.44,0Z"/><path d="M250.32,18H20.63A10.7,10.7,0,0,0,10,28.66V460.34A10.7,10.7,0,0,0,20.63,471H250.32A10.69,10.69,0,0,0,261,460.34V28.66A10.69,10.69,0,0,0,250.32,18Z"/><path class="cls-2" d="M254,36.81V420.19c0,7-6.06,12.81-13.47,12.81h-211C22,433,16,427.23,16,420.19V36.81C16,29.77,22,24,29.45,24h3.14A17.05,17.05,0,0,1,48.42,34l4.87,11.49a15.17,15.17,0,0,1,1,3.74A13.31,13.31,0,0,0,67.62,60.31H203.45A13.31,13.31,0,0,0,216.8,49.23a15.17,15.17,0,0,1,1-3.74L222.65,34a17.05,17.05,0,0,1,15.83-10h2C247.91,24,254,29.77,254,36.81Z"/><rect class="cls-3" x="95.47" y="439.5" width="72" height="26" rx="12"/><circle class="cls-3" cx="131.47" cy="37.5" r="10"/><circle class="cls-4" cx="181.47" cy="37.5" r="6"/><g class="cls-5"><path class="cls-6" d="M55.07,303.4V155.07a2.06,2.06,0,0,1,2-2H205.37a2.07,2.07,0,0,1,2,2V303.4a2.07,2.07,0,0,1-2,2H57A2.06,2.06,0,0,1,55.07,303.4Z"/><path class="cls-7" d="M207.35,155.07a3.11,3.11,0,0,0-2-2c.66,0,1.58-.26,1.9.07S207.35,154.41,207.35,155.07Z"/><path class="cls-7" d="M57,153.1a3.07,3.07,0,0,0-2,2v-2Z"/><path class="cls-7" d="M55.07,303.4a3.07,3.07,0,0,0,2,2c-.66,0-1.57.26-1.9-.07S55.07,304.06,55.07,303.4Z"/><path class="cls-7" d="M205.37,305.37a3.11,3.11,0,0,0,2-2c0,.66.25,1.57-.08,1.9S206,305.37,205.37,305.37Z"/><path class="cls-8" d="M133.86,180.17c0-7,0-14,0-21,0-.67.17-.86.86-.86q15.65,0,31.29,0a1.15,1.15,0,0,1,1.06.51,22,22,0,0,1,4.38,12.06,21.64,21.64,0,0,1-4.9,15c-.48.6-1,1.17-1.55,1.73a.59.59,0,0,0-.1.84c2.44,4.23,4.85,8.47,7.27,12.71,0,.07.07.13.1.19.36.65.35.68-.39.68-6.32,0-12.64,0-19,0-.59,0-.69-.21-.69-.73,0-4.28,0-8.55,0-12.83a2.61,2.61,0,1,0-5.22,0c0,4.08,0,8.17,0,12.26a4.56,4.56,0,0,0,0,.64c.07.53-.16.68-.68.67-2.4,0-4.79,0-7.19,0-1.46,0-2.91,0-4.37,0-.7,0-.91-.16-.91-.9C133.87,194.17,133.86,187.17,133.86,180.17Z"/><path class="cls-8" d="M128.56,229.21c0,7,0,14,0,21,0,.72-.18.9-.89.9q-8,0-15.94,0c-.74,0-.88-.22-.88-.91,0-4.16,0-8.32,0-12.48a2.69,2.69,0,0,0-2-2.84c-1.82-.48-3.34.79-3.34,2.83q0,5.16,0,10.3c0,.75,0,1.5,0,2.25s-.12.89-.81.85a25.33,25.33,0,0,0-2.89,0c-.53,0-.73-.18-.86-.66-.87-3.1-1.77-6.18-2.65-9.27L92,218.93c-1-3.66-2.07-7.31-3.14-11-.14-.48,0-.61.45-.61q12.45,0,24.89,0c.59,0,.63.26.63.73,0,4.28,0,8.55,0,12.83a2.62,2.62,0,1,0,5.23,0q0-6.37,0-12.76c0-.65.18-.83.83-.82q3.42.06,6.84,0c.67,0,.86.17.86.86C128.55,215.21,128.56,222.21,128.56,229.21Z"/><path class="cls-9" d="M202.13,278.3c0,7.05,0,14.1,0,21.15,0,.6-.16.72-.74.72q-15,0-30.1,0c-.56,0-.76-.12-.75-.73,0-1.87,0-3.75,0-5.63a.82.82,0,0,1,.5-.87,7.21,7.21,0,0,0,0-13,.8.8,0,0,1-.51-.86q0-11,0-22c0-.57.17-.7.71-.7h30.17c.56,0,.7.15.7.7C202.12,264.15,202.13,271.23,202.13,278.3Z"/><path class="cls-10" d="M128.57,180.22c0,7,0,14,0,21,0,.68-.19.86-.86.86q-14.91,0-29.82,0c-.67,0-.86-.16-.86-.85q0-21.07,0-42.15c0-.61.14-.79.78-.78,3.87,0,7.75,0,11.62,0,.66,0,.76.2.76.79q0,14.47,0,29a2.66,2.66,0,0,0,2.14,2.89,2.59,2.59,0,0,0,3.07-2.34c0-.21,0-.42,0-.63q0-14.46,0-28.9c0-.61.14-.79.77-.78,3.88,0,7.75,0,11.63,0,.61,0,.79.14.79.77C128.56,166.12,128.57,173.17,128.57,180.22Z"/><path class="cls-10" d="M60.29,180.15c0-7,0-14.05,0-21.08,0-.63.16-.77.78-.77q15,0,30,0c.61,0,.79.13.79.77q-.06,4.78,0,9.59c0,.6-.13.79-.77.79-5,0-9.91,0-14.87,0a2.56,2.56,0,0,0-2.65,1.79,2.6,2.6,0,0,0,2.54,3.43H91.34c.34,0,.52.07.52.46,0,3.41,0,6.81,0,10.22,0,.47-.27.46-.59.46h-4c-3.67,0-7.33,0-11,0a2.62,2.62,0,1,0,0,5.23c4.94,0,9.87,0,14.81,0,.63,0,.78.17.78.79,0,3.19,0,6.39,0,9.58,0,.56-.16.72-.71.72q-15.09,0-30.17,0c-.65,0-.7-.26-.7-.79Q60.3,190.73,60.29,180.15Z"/><path class="cls-8" d="M60.29,278.3c0-7,0-14.05,0-21.08,0-.65.18-.82.83-.81q15,0,29.95,0c.67,0,.83.2.82.84q0,4.75,0,9.51c0,.56-.16.72-.71.72q-7.51,0-15,0A2.57,2.57,0,0,0,73.7,269a2.58,2.58,0,0,0,2.41,3.72c5,0,9.91,0,14.87,0,.72,0,.9.18.89.89,0,3.18,0,6.35,0,9.52,0,.58-.15.76-.75.76-5,0-10,0-15,0a2.57,2.57,0,0,0-2.4,1.45A2.46,2.46,0,0,0,74,288,2.59,2.59,0,0,0,76.22,289H91c.91,0,.91,0,.91.92,0,3.15,0,6.3,0,9.45,0,.55-.11.77-.73.77q-15.08,0-30.17,0c-.57,0-.7-.18-.69-.72Q60.3,288.88,60.29,278.3Z"/><path class="cls-11" d="M112.82,300.16c-5,0-10,0-15,0-.58,0-.75-.15-.74-.74,0-3.22,0-6.44,0-9.66,0-.58.15-.75.74-.75q7.52,0,15,0a2.43,2.43,0,0,0,2.36-1.48,2.51,2.51,0,0,0-.33-2.78,2.67,2.67,0,0,0-2.25-1c-4.88,0-9.77,0-14.66,0-.74,0-.88-.22-.87-.91q0-12.82,0-25.66c0-.74.23-.88.91-.88q14.88,0,29.75,0c.66,0,.88.16.87.85,0,3.17,0,6.35,0,9.52,0,.55-.15.71-.71.71q-7.44,0-14.88,0a2.63,2.63,0,0,0-2.44,3.92,2.44,2.44,0,0,0,2.33,1.3c4.94,0,9.87,0,14.8,0,.71,0,.91.17.9.89q0,12.9,0,25.8c0,.65-.17.82-.82.82C122.78,300.14,117.8,300.16,112.82,300.16Z"/><path class="cls-9" d="M149.55,300.16c-5,0-10,0-15,0-.53,0-.71-.11-.71-.69q0-13.05,0-26.09c0-.61.21-.72.77-.72,4.91,0,9.82,0,14.73,0a2.69,2.69,0,0,0,2.89-2.6,2.66,2.66,0,0,0-2.93-2.64c-4.89,0-9.77,0-14.66,0-.67,0-.81-.21-.8-.83q0-4.75,0-9.51c0-.57.13-.77.73-.76q12.06,0,24.11,0,3,0,6.06,0c.49,0,.64.14.64.63q0,11.07,0,22.14a.76.76,0,0,1-.5.8,6.8,6.8,0,0,0-3.37,3.36.79.79,0,0,1-.86.52c-3.66,0-7.33,0-11,0a2.6,2.6,0,0,0-.77,5.11,4.11,4.11,0,0,0,1,.1c3.55,0,7.1,0,10.65,0a.88.88,0,0,1,1,.59,6.75,6.75,0,0,0,3.34,3.3.8.8,0,0,1,.5.87c0,1.88,0,3.76,0,5.64,0,.57-.13.74-.72.74C159.61,300.15,154.58,300.16,149.55,300.16Z"/><path class="cls-11" d="M60.29,229.18q0-10.5,0-21c0-.62.13-.84.8-.83q10.71,0,21.43,0c.55,0,.82.13,1,.7q6,21.21,12.12,42.42c.17.57,0,.65-.51.65q-7.86,0-15.72,0c-.57,0-.75-.14-.75-.74,0-4.28,0-8.55,0-12.83a2.62,2.62,0,1,0-5.23,0c0,4.25,0,8.5,0,12.75,0,.58-.1.82-.76.81q-5.85,0-11.7,0c-.58,0-.7-.19-.69-.72Q60.3,239.8,60.29,229.18Z"/><path class="cls-11" d="M188.1,202.06c-2.92,0-5.83,0-8.74,0a1,1,0,0,1-1-.56q-3.48-6.16-7-12.29a.87.87,0,0,1,.12-1.12A27.11,27.11,0,0,0,173.37,159c-.35-.66-.36-.66.38-.66,7.45,0,14.9,0,22.34,0a9.63,9.63,0,0,1,9.44,8.88,9.94,9.94,0,0,1-2.74,8.18,7.81,7.81,0,0,1-3,1.79,3.2,3.2,0,0,0-2.17,2.92,3.11,3.11,0,0,0,2.06,3.07,8.61,8.61,0,0,1,5.62,6.6,9.9,9.9,0,0,1-4.19,10.81,8.6,8.6,0,0,1-4.77,1.47H188.1Z"/><path class="cls-8" d="M167.92,207.37c5,0,10,0,14.94,0,.65,0,.83.18.83.82,0,3.18,0,6.35,0,9.52,0,.54-.13.74-.7.73-1.83,0-3.67,0-5.5,0a2.68,2.68,0,0,0-3,3c0,9.61,0,19.22,0,28.83,0,.66-.14.88-.84.88-3.83,0-7.67,0-11.5,0-.67,0-.81-.21-.8-.84q0-14.34,0-28.69c0-2.17-1-3.18-3.2-3.18-1.77,0-3.53,0-5.29,0-.53,0-.68-.16-.67-.68q0-4.87,0-9.73c0-.56.21-.65.7-.65Z"/><path class="cls-11" d="M202.13,237.41c0,4.32,0,8.65,0,13,0,.59-.16.74-.74.74q-5.9,0-11.77,0c-.59,0-.75-.17-.75-.75q0-13,0-25.94c0-.59.17-.75.76-.75q5.88,0,11.77,0c.6,0,.73.19.73.76C202.12,228.76,202.13,233.09,202.13,237.41Z"/><path class="cls-11" d="M147,237.41c0,4.32,0,8.64,0,13,0,.6-.17.75-.75.75q-5.85,0-11.7,0c-.56,0-.71-.17-.71-.72q0-13,0-26c0-.56.16-.72.72-.71q5.83,0,11.69,0c.6,0,.75.19.74.76C147,228.76,147,233.09,147,237.41Z"/><path class="cls-12" d="M156.15,237.44V250.2c0,.9,0,.9-.93.9-.72,0-1.46,0-2.18,0s-.84-.22-.84-.87q0-11.67,0-23.33c0-.85,0-1.69,0-2.54,0-.54.17-.69.69-.67a23.72,23.72,0,0,0,2.53,0c.62,0,.74.21.73.77Q156.15,231,156.15,237.44Z"/><path class="cls-12" d="M183.67,237.41c0,4.3,0,8.59,0,12.89,0,.67-.21.85-.84.81s-1.46,0-2.19,0c-1,0-1,0-1-.94V228.32c0-1.32,0-2.63,0-3.95,0-.54.18-.69.69-.67a22.61,22.61,0,0,0,2.47,0c.63,0,.84.14.83.81C183.65,228.81,183.67,233.11,183.67,237.41Z"/><path class="cls-10" d="M170.28,286.39a2.25,2.25,0,0,1-2.32,2.36,2.31,2.31,0,0,1-2.33-2.31A2.37,2.37,0,0,1,168,284.1,2.27,2.27,0,0,1,170.28,286.39Z"/><path class="cls-10" d="M140.41,214.85a2,2,0,1,1,2-2A1.93,1.93,0,0,1,140.41,214.85Z"/><path class="cls-10" d="M195.46,214.85a2,2,0,1,1,2-1.88A1.94,1.94,0,0,1,195.46,214.85Z"/><path class="cls-13" d="M86.19,205a4.82,4.82,0,0,0-1.57.22c-.34.16-.92-.16-1.39-.31-.14,0-.1-.25,0-.35a.5.5,0,0,1,.32-.1c1.22.32,2.43-.21,3.64,0,.22,0,.54-.08.55.27s-.3.28-.52.29S86.58,205,86.19,205Z"/><path class="cls-14" d="M133.77,216.12a27.6,27.6,0,0,0,2,2.37h-1.54c-.29,0-.42-.16-.42-.44Z"/><path class="cls-15" d="M188.89,216a14.45,14.45,0,0,0,1.91,2.38.82.82,0,0,1-.24.09c-2,0-1.63.24-1.67-1.64C188.88,216.57,188.89,216.3,188.89,216Z"/><path class="cls-15" d="M202.13,216.14v1.12c0,1.29-.21,1.46-1.51,1.24-.23,0-.39-.12-.16-.34A22.41,22.41,0,0,0,202.13,216.14Z"/><path class="cls-16" d="M147,216.15v1c0,1.41-.34,1.64-1.84,1.17A15.66,15.66,0,0,0,147,216.15Z"/><path class="cls-15" d="M190.77,207.4a10.54,10.54,0,0,0-1.88,2.55v-.87C188.88,207.3,188.88,207.3,190.77,207.4Z"/><path class="cls-14" d="M135.7,207.37a10.57,10.57,0,0,0-1.86,2.41,10.7,10.7,0,0,1-.06-2.09c0-.29.21-.32.43-.32Z"/><path class="cls-17" d="M131.49,201.57a3.14,3.14,0,0,1-.3,1.9c-.09.14-.2.28-.39.2s-.18-.27-.11-.42a6.74,6.74,0,0,0,.24-2.49c0-.27-.15-.75.26-.75s.26.5.29.79A4.93,4.93,0,0,1,131.49,201.57Z"/><path class="cls-18" d="M153.81,156c-.35,0-.7,0-1.05,0s-.45-.09-.44-.35.22-.3.42-.3h2.32a.32.32,0,0,1,.36.26c0,.26-.17.35-.34.36-.42,0-.85,0-1.27,0Z"/><path class="cls-18" d="M138.27,156c-.39,0-.79,0-1.19,0a.33.33,0,0,1-.34-.3c0-.23.18-.32.38-.33h2.32c.2,0,.4.1.41.31s-.23.33-.45.34c-.38,0-.75,0-1.13,0Z"/><path class="cls-18" d="M159.14,155.37h1.12c.18,0,.34.07.35.27a.33.33,0,0,1-.29.35,11.79,11.79,0,0,1-2.52,0,.31.31,0,0,1-.29-.34c0-.2.21-.25.36-.26.43,0,.85,0,1.27,0Z"/><path class="cls-18" d="M179.77,156c-.35,0-.7,0-1.05,0s-.45-.09-.46-.34.21-.31.41-.31H181c.2,0,.38.1.38.33a.32.32,0,0,1-.34.3c-.42,0-.84,0-1.26,0Z"/><path class="cls-15" d="M145.22,207.51c.09-.09.1-.11.11-.11,1.66-.17,1.66-.17,1.66,1.46v.93A10.77,10.77,0,0,0,145.22,207.51Z"/><path class="cls-18" d="M190.14,155.37c.39,0,.79,0,1.19,0,.2,0,.4.1.41.31s-.2.33-.39.34c-.77,0-1.54,0-2.32,0-.18,0-.4-.09-.4-.32s.23-.33.45-.33Z"/><path class="cls-18" d="M164.2,155.37c.4,0,.8,0,1.2,0,.19,0,.39.11.39.32s-.2.32-.39.33c-.77,0-1.55,0-2.32,0-.18,0-.4-.09-.39-.32s.23-.32.46-.32Z"/><path class="cls-18" d="M185,155.37h1.13c.19,0,.4,0,.4.29a.36.36,0,0,1-.32.34,11.7,11.7,0,0,1-2.51,0,.31.31,0,0,1-.28-.35.32.32,0,0,1,.32-.23c.42,0,.84,0,1.26,0Z"/><path class="cls-19" d="M202.13,209.83a10.84,10.84,0,0,0-1.82-2.37,5.1,5.1,0,0,1,1.49-.08c.35,0,.33.25.33.49Z"/><path class="cls-18" d="M143.49,156c-.37,0-.75,0-1.12,0-.2,0-.45-.08-.41-.37s.23-.28.42-.28h2.17c.23,0,.46,0,.45.33s-.26.31-.46.32-.7,0-1,0Z"/><path class="cls-20" d="M148.66,155.37h1.12c.2,0,.39,0,.43.27s-.16.34-.34.36a12.51,12.51,0,0,1-2.37,0c-.16,0-.34-.1-.34-.3s.18-.32.38-.32Z"/><path class="cls-18" d="M169.4,155.37h1.12c.19,0,.39,0,.42.28s-.16.33-.34.35a12.51,12.51,0,0,1-2.37,0c-.16,0-.34-.1-.34-.3s.18-.32.39-.33Z"/><path class="cls-20" d="M174.62,156.06c-.41,0-.81,0-1.2-.07-.16,0-.33-.1-.32-.31a.32.32,0,0,1,.34-.3h2.38a.31.31,0,0,1,.34.29c0,.21-.15.3-.3.32C175.44,156,175,156,174.62,156.06Z"/><path class="cls-20" d="M200.55,155.37h1.12c.2,0,.39,0,.43.28s-.17.34-.35.35a12.51,12.51,0,0,1-2.37,0c-.16,0-.34-.1-.33-.3s.18-.32.38-.32Z"/><path class="cls-18" d="M195.4,155.37h1.13c.17,0,.33.06.36.26s-.16.34-.34.36a12.51,12.51,0,0,1-2.37,0c-.16,0-.34-.1-.34-.3s.17-.32.37-.32Z"/><path class="cls-21" d="M185,254c-.42,0-.84,0-1.26,0-.18,0-.33-.09-.32-.3s.15-.2.29-.25a5.45,5.45,0,0,1,2.54,0c.15,0,.27.09.27.26s-.16.27-.33.27Z"/><path class="cls-22" d="M134,155.37a1.51,1.51,0,0,1,.31,0c.14,0,.29.08.31.24s-.14.3-.29.35a1.29,1.29,0,0,1-.48,0,2.2,2.2,0,0,0-1.59.42c-.15.11-.34.25-.48,0s0-.35.14-.5A3.43,3.43,0,0,1,134,155.37Z"/><path class="cls-22" d="M186.06,239.21c0-.4,0-.8,0-1.19,0-.17,0-.36.24-.36a.28.28,0,0,1,.3.31q0,1.26,0,2.52c0,.16-.07.28-.24.29s-.29-.12-.3-.31v-1.26Z"/><path class="cls-22" d="M186.61,212.7c0,.38,0,.76,0,1.13,0,.19-.05.4-.3.39s-.26-.18-.26-.36V211.4c0-.17,0-.34.28-.32a.32.32,0,0,1,.27.36c0,.42,0,.84,0,1.26Z"/><path class="cls-17" d="M186.62,249.89V251c0,.19,0,.41-.27.42s-.29-.2-.29-.4v-2.39c0-.17,0-.34.25-.35s.29.15.3.33c0,.42,0,.84,0,1.26Z"/><path class="cls-17" d="M131.48,253.48v1.19a.29.29,0,0,1-.24.3c-.21,0-.3-.13-.3-.31,0-.81,0-1.63,0-2.45,0-.17.07-.34.28-.34s.27.17.27.34c0,.43,0,.85,0,1.27Z"/><path class="cls-23" d="M186.6,228.6c0,.42,0,.84,0,1.26,0,.17-.1.33-.3.3a.27.27,0,0,1-.23-.3q0-1.26,0-2.52a.27.27,0,0,1,.23-.3c.2,0,.29.13.3.3C186.61,227.76,186.6,228.18,186.6,228.6Z"/><path class="cls-22" d="M159.08,254h-1.26c-.18,0-.33-.09-.32-.3a.27.27,0,0,1,.3-.23h2.46c.18,0,.34.06.35.27s-.17.27-.34.27h-1.19Z"/><path class="cls-22" d="M186.61,218v1.05c0,.23,0,.45-.31.45s-.25-.24-.25-.42c0-.77,0-1.54,0-2.31,0-.16,0-.36.21-.38s.33.15.34.35c0,.42,0,.84,0,1.26Z"/><path class="cls-17" d="M130.93,227.39v-1.12c0-.18.07-.34.28-.34s.27.17.27.34c0,.82,0,1.64,0,2.45a.27.27,0,0,1-.24.3c-.21,0-.3-.12-.3-.3,0-.44,0-.89,0-1.33Z"/><path class="cls-17" d="M131.49,175.65c0,.37,0,.75,0,1.12,0,.17,0,.35-.25.37s-.29-.14-.29-.31q0-1.23,0-2.46c0-.17.07-.34.28-.33s.26.17.26.35C131.49,174.81,131.48,175.23,131.49,175.65Z"/><path class="cls-22" d="M186.61,233.93v1.12c0,.2,0,.4-.28.42s-.27-.2-.27-.39c0-.77,0-1.55,0-2.32,0-.17,0-.37.21-.39s.33.15.33.36c0,.4,0,.8,0,1.2Z"/><path class="cls-17" d="M186.61,244.54c0,.42,0,.84,0,1.26,0,.17-.09.33-.3.3a.28.28,0,0,1-.23-.3q0-1.26,0-2.52c0-.15.07-.29.23-.3s.3.12.31.3C186.62,243.7,186.61,244.12,186.61,244.54Z"/><path class="cls-17" d="M131.48,279.39c0,.39,0,.79,0,1.19,0,.17-.07.34-.28.33s-.27-.17-.27-.34c0-.82,0-1.64,0-2.46a.27.27,0,0,1,.24-.29c.2,0,.29.13.3.31,0,.42,0,.84,0,1.26Z"/><path class="cls-23" d="M186.05,223.24v-1.18c0-.17,0-.35.27-.34a.31.31,0,0,1,.29.33c0,.82,0,1.63,0,2.45a.29.29,0,0,1-.29.33c-.27,0-.26-.22-.26-.4,0-.4,0-.79,0-1.19Z"/><path class="cls-22" d="M143.47,254h-1.19a.3.3,0,0,1-.32-.3c0-.22.18-.24.35-.24.77,0,1.54,0,2.31,0,.2,0,.4,0,.39.29s-.23.26-.42.26h-1.12Z"/><path class="cls-21" d="M134.67,253.74c0,.24-.2.31-.39.3a3,3,0,0,0-2.12.55c-.09.07-.21.12-.31,0a.32.32,0,0,1,0-.44,2,2,0,0,1,1.15-.62,10.61,10.61,0,0,1,1.26,0A.33.33,0,0,1,134.67,253.74Z"/><path class="cls-22" d="M164.24,254c-.38,0-.76,0-1.13,0-.19,0-.4,0-.39-.3s.18-.25.36-.25h2.39c.17,0,.34,0,.32.28a.32.32,0,0,1-.36.27Z"/><path class="cls-22" d="M169.44,253.49h1.19c.18,0,.33.06.32.28s-.16.27-.33.27h-2.39a.3.3,0,0,1-.33-.29c0-.23.18-.25.35-.25C168.64,253.48,169,253.49,169.44,253.49Z"/><path class="cls-22" d="M195.38,254h-1.12c-.19,0-.39,0-.41-.28s.21-.27.39-.27q1.13,0,2.25,0c.18,0,.39,0,.4.26s-.19.29-.38.29Z"/><path class="cls-22" d="M190.21,253.49c.37,0,.75,0,1.13,0,.18,0,.4,0,.39.27s-.16.28-.35.28H189c-.17,0-.34-.07-.33-.28s.18-.26.35-.26Z"/><path class="cls-17" d="M131.49,284.55v1.13c0,.2-.05.39-.28.41s-.28-.21-.28-.39c0-.75,0-1.51,0-2.26,0-.19,0-.41.27-.42s.28.21.29.4Z"/><path class="cls-22" d="M138.3,254h-1.19c-.18,0-.35-.07-.34-.28s.18-.26.35-.26h2.39c.17,0,.35,0,.33.27a.3.3,0,0,1-.34.28h-1.2Z"/><path class="cls-24" d="M127.64,302.56l1.12-.05c.2,0,.4,0,.43.24s-.21.32-.38.32c-.79,0-1.59,0-2.38,0a.32.32,0,0,1-.33-.3c0-.23.19-.23.35-.23h1.19Z"/><path class="cls-25" d="M70.59,302.55h1.18c.15,0,.3,0,.32.2a.29.29,0,0,1-.29.33c-.83,0-1.67,0-2.51,0a.29.29,0,0,1-.29-.33c0-.16.18-.19.33-.19Z"/><path class="cls-17" d="M131.49,160.08c0,.37,0,.75,0,1.12,0,.18-.06.33-.27.34s-.28-.15-.28-.33c0-.8,0-1.6,0-2.39,0-.18.09-.33.3-.31s.23.15.24.3v1.27Z"/><path class="cls-17" d="M130.93,243v-1.2c0-.19.1-.32.31-.3a.26.26,0,0,1,.24.29q0,1.2,0,2.4c0,.17-.06.34-.27.34s-.27-.16-.27-.34C130.93,243.81,130.93,243.42,130.93,243Z"/><path class="cls-17" d="M131.48,165.18c0,.42,0,.84,0,1.26a.26.26,0,0,1-.26.28.24.24,0,0,1-.26-.27c0-.84,0-1.68,0-2.53,0-.16.12-.24.29-.23a.26.26,0,0,1,.24.29c0,.4,0,.8,0,1.2Z"/><path class="cls-17" d="M131.48,248.22c0,.4,0,.79,0,1.19,0,.18-.06.34-.27.35s-.27-.16-.27-.33c0-.8,0-1.6,0-2.4,0-.18.09-.32.3-.3s.25.19.26.36v1.13Z"/><path class="cls-17" d="M130.93,170.38v-1.13c0-.17,0-.33.26-.35s.29.12.29.31c0,.8,0,1.59,0,2.39,0,.18-.08.34-.29.33s-.25-.18-.26-.35Z"/><path class="cls-17" d="M131.48,180.78c0,.39,0,.79,0,1.19,0,.19-.09.32-.3.3a.26.26,0,0,1-.25-.28v-2.4c0-.17.07-.34.27-.34s.28.16.28.33C131.49,180,131.48,180.38,131.48,180.78Z"/><path class="cls-17" d="M130.93,186c0-.38,0-.75,0-1.13,0-.19,0-.41.29-.4s.27.23.27.42v2.26c0,.17,0,.34-.26.35s-.3-.18-.3-.38Z"/><path class="cls-17" d="M131.48,191.15c0,.4,0,.8,0,1.2,0,.18-.09.33-.3.31a.27.27,0,0,1-.24-.3q0-1.23,0-2.46a.25.25,0,0,1,.26-.27c.22,0,.28.15.28.33,0,.4,0,.79,0,1.19Z"/><path class="cls-17" d="M131.49,196.35c0,.37,0,.75,0,1.13,0,.19,0,.4-.29.39s-.26-.23-.26-.42v-2.18c0-.19,0-.41.25-.42s.3.23.31.44Z"/><path class="cls-17" d="M65.69,204.43c.4,0,.8,0,1.19,0,.19,0,.32.09.3.3a.25.25,0,0,1-.28.24H64.51c-.17,0-.34-.06-.34-.27s.16-.28.33-.28C64.9,204.42,65.29,204.43,65.69,204.43Z"/><path class="cls-22" d="M148.65,254c-.39,0-.79,0-1.19,0a.28.28,0,0,1-.29-.33c0-.17.17-.2.32-.2h2.39c.18,0,.35,0,.33.27a.32.32,0,0,1-.36.27Z"/><path class="cls-22" d="M153.87,253.49c.38,0,.75,0,1.13,0,.19,0,.4,0,.4.28s-.18.26-.35.26h-2.33c-.17,0-.34,0-.35-.26s.18-.29.38-.29C153.12,253.48,153.5,253.49,153.87,253.49Z"/><path class="cls-17" d="M76,204.42h1c.2,0,.39,0,.39.29s-.17.27-.34.27H74.82c-.17,0-.35,0-.36-.25s.19-.3.38-.31Z"/><path class="cls-17" d="M91.37,205H90.25c-.18,0-.33-.06-.33-.28s.15-.27.33-.27c.79,0,1.59,0,2.39,0,.17,0,.33.1.3.31s-.15.23-.3.23H91.37Z"/><path class="cls-17" d="M96.61,204.42h1.12c.18,0,.33.06.33.27s-.15.28-.33.28H95.35c-.18,0-.33-.09-.31-.3a.29.29,0,0,1,.3-.24c.42,0,.84,0,1.27,0Z"/><path class="cls-22" d="M174.64,253.49h1.19c.15,0,.3,0,.32.2a.27.27,0,0,1-.29.33H173.4a.28.28,0,0,1-.29-.33c0-.17.18-.2.33-.2Z"/><path class="cls-22" d="M179.82,254h-1.13c-.2,0-.39,0-.38-.3s.19-.25.36-.25H181c.18,0,.35,0,.35.26s-.16.28-.33.28h-1.19Z"/><path class="cls-17" d="M101.71,205h-1.12c-.2,0-.4,0-.38-.3s.18-.26.35-.26h2.25c.2,0,.41,0,.42.27s-.2.28-.39.29C102.46,205,102.09,205,101.71,205Z"/><path class="cls-17" d="M106.8,205h-1.19a.28.28,0,0,1-.28-.26.25.25,0,0,1,.27-.27h2.52a.23.23,0,0,1,.23.29.25.25,0,0,1-.28.24H106.8Z"/><path class="cls-22" d="M200.56,253.49c.38,0,.75,0,1.13,0,.18,0,.41,0,.4.25s-.21.3-.4.3h-2.26c-.2,0-.39-.08-.37-.32s.21-.22.37-.22C199.81,253.48,200.19,253.49,200.56,253.49Z"/><path class="cls-17" d="M112,205h-1.13c-.17,0-.33,0-.35-.25s.12-.3.31-.3c.79,0,1.59,0,2.39,0,.17,0,.33.07.32.28s-.17.26-.35.26Z"/><path class="cls-17" d="M117.11,205H116c-.17,0-.35,0-.36-.25s.18-.3.38-.31h2.32c.18,0,.32.07.32.28s-.17.27-.34.27Z"/><path class="cls-17" d="M122.31,204.42h1.12c.2,0,.4.06.39.31s-.2.25-.37.25h-2.32c-.18,0-.33,0-.34-.27s.14-.28.32-.28Z"/><path class="cls-17" d="M127.37,205h-1.12c-.18,0-.34-.06-.33-.27s.17-.27.34-.27c.8,0,1.59,0,2.39,0a.27.27,0,0,1,.29.25c0,.21-.12.29-.3.29Z"/><path class="cls-17" d="M131.49,258.6v1.13c0,.2,0,.39-.31.37s-.25-.18-.25-.35V257.5c0-.2,0-.41.27-.42s.28.2.29.4Z"/><path class="cls-17" d="M131.49,263.83V265c0,.18-.05.34-.26.35s-.29-.13-.3-.31c0-.8,0-1.59,0-2.39,0-.18.07-.34.28-.33s.26.18.26.36C131.49,263,131.48,263.43,131.49,263.83Z"/><path class="cls-17" d="M131.48,206.76c0,.38,0,.75,0,1.13,0,.18-.06.33-.27.32s-.28-.15-.28-.33c0-.79,0-1.59,0-2.39a.28.28,0,0,1,.24-.3c.2,0,.29.13.3.31,0,.42,0,.84,0,1.26Z"/><path class="cls-17" d="M131.49,269c0,.37,0,.75,0,1.13,0,.19,0,.4-.29.38s-.26-.18-.26-.36v-2.32c0-.18,0-.34.26-.34s.29.19.3.38Z"/><path class="cls-17" d="M131.49,274.25v1.06c0,.19,0,.4-.29.39s-.27-.22-.27-.42V273c0-.17,0-.34.25-.35s.3.17.31.37Z"/><path class="cls-17" d="M130.93,211.92c0-.37,0-.75,0-1.13,0-.19,0-.4.29-.39s.27.23.27.42v2.25c0,.18,0,.34-.26.35s-.3-.17-.3-.37Z"/><path class="cls-17" d="M131.49,217.08c0,.38,0,.75,0,1.13,0,.19,0,.41-.28.39s-.27-.23-.27-.42v-2.25c0-.18,0-.34.25-.35s.3.17.31.37Z"/><path class="cls-17" d="M131.48,222.32c0,.39,0,.79,0,1.19,0,.18-.1.33-.31.31a.28.28,0,0,1-.23-.31c0-.8,0-1.59,0-2.39,0-.18.06-.33.28-.33s.27.15.27.33c0,.4,0,.8,0,1.2Z"/><path class="cls-17" d="M131.48,289.68c0,.43,0,.85,0,1.27,0,.19-.09.32-.3.3a.25.25,0,0,1-.24-.28c0-.8,0-1.6,0-2.4,0-.17.06-.34.27-.34s.27.16.28.33C131.49,288.93,131.48,289.31,131.48,289.68Z"/><path class="cls-17" d="M130.93,294.87v-1.13c0-.18.06-.33.28-.33s.27.15.27.33c0,.8,0,1.6,0,2.39,0,.18-.1.33-.31.31a.28.28,0,0,1-.23-.31c0-.42,0-.84,0-1.26Z"/><path class="cls-17" d="M131.49,232.73v1.05c0,.2,0,.39-.3.38s-.26-.18-.26-.35v-2.32c0-.18.06-.35.26-.35s.29.2.3.39Z"/><path class="cls-26" d="M65.4,302.54h1.13c.16,0,.34,0,.35.24a.26.26,0,0,1-.26.28H64.09a.27.27,0,0,1-.25-.29c0-.19.14-.23.29-.23H65.4Z"/><path class="cls-17" d="M131.49,237.91c0,.37,0,.75,0,1.12,0,.18-.06.33-.27.34s-.28-.15-.28-.33c0-.8,0-1.59,0-2.39,0-.18.09-.33.3-.31a.29.29,0,0,1,.24.3v1.27Z"/><path class="cls-24" d="M80.86,303.12c-.39,0-.79,0-1.19-.06-.16,0-.33-.11-.3-.32s.18-.19.33-.19h2.39c.16,0,.36,0,.37.22a.31.31,0,0,1-.33.3c-.42,0-.84,0-1.27,0Z"/><path class="cls-27" d="M86.14,302.54h1.12c.17,0,.35,0,.35.24a.25.25,0,0,1-.26.28H84.82a.28.28,0,0,1-.25-.29c0-.19.15-.23.3-.23h1.27Z"/><path class="cls-26" d="M91.34,302.55h1.19c.15,0,.29,0,.3.23a.27.27,0,0,1-.26.29H90a.27.27,0,0,1-.26-.28c0-.23.19-.24.36-.24h1.2Z"/><path class="cls-25" d="M96.51,302.54h1.12c.19,0,.42,0,.4.26s-.17.28-.35.28c-.77,0-1.55,0-2.32,0-.21,0-.39-.1-.37-.34s.23-.2.39-.21Z"/><path class="cls-24" d="M106.91,302.54H108c.17,0,.36,0,.37.22a.29.29,0,0,1-.26.29,11.8,11.8,0,0,1-2.59,0,.26.26,0,0,1-.24-.29c0-.18.19-.19.33-.19Z"/><path class="cls-27" d="M112.05,303.1h-1.11c-.2,0-.4-.06-.42-.29s.21-.26.39-.26h2.3c.16,0,.34,0,.35.23a.29.29,0,0,1-.32.3c-.4,0-.79,0-1.19,0Z"/><path class="cls-26" d="M117.22,303.08c-.4,0-.8,0-1.2,0a.28.28,0,0,1-.29-.32c0-.18.17-.21.31-.21h2.4c.17,0,.35,0,.33.26s-.18.27-.35.28c-.4,0-.8,0-1.2,0Z"/><path class="cls-25" d="M122.46,302.55h1.2c.15,0,.3,0,.32.2a.29.29,0,0,1-.29.33h-2.47a.28.28,0,0,1-.28-.34c0-.17.18-.19.32-.19Z"/><path class="cls-17" d="M131.49,300a3,3,0,0,1-.16,1.29c-.07.17-.15.38-.39.32s-.2-.27-.15-.42a8.15,8.15,0,0,0,.14-2.09c0-.21,0-.47.29-.46s.26.28.27.48Z"/><path class="cls-17" d="M81.08,205c-.35,0-.7,0-1,0-.18,0-.4,0-.39-.26s.15-.29.33-.29h2.38a.28.28,0,0,1,.3.24c0,.21-.13.29-.31.3H81.08Z"/><path class="cls-24" d="M75.75,302.54h1.13c.17,0,.37,0,.39.22s-.21.31-.39.31c-.75,0-1.5,0-2.25,0-.19,0-.4-.07-.42-.3s.24-.24.42-.24Z"/><path class="cls-28" d="M70.8,205H69.68c-.17,0-.34,0-.34-.26a.28.28,0,0,1,.26-.28c.84,0,1.68,0,2.52,0a.24.24,0,0,1,.24.28.28.28,0,0,1-.3.24H70.8Z"/><path class="cls-24" d="M101.76,302.55h1.13a.3.3,0,0,1,.33.21.26.26,0,0,1-.25.29,13.37,13.37,0,0,1-2.53,0,.28.28,0,0,1-.28-.33c0-.17.19-.18.34-.18h1.26Z"/><path class="cls-29" d="M91.29,225.81a.44.44,0,0,1,.38.38c.19.63.36,1.27.54,1.9a.37.37,0,0,1-.14.49c-.24.11-.33-.13-.38-.3-.21-.67-.4-1.35-.59-2A.33.33,0,0,1,91.29,225.81Z"/><path class="cls-23" d="M96.31,242.41c0,.19,0,.35-.23.4s-.25-.11-.29-.24c-.22-.71-.43-1.43-.64-2.15a.29.29,0,0,1,.13-.36.27.27,0,0,1,.38.2C95.89,241,96.1,241.69,96.31,242.41Z"/><path class="cls-21" d="M86.8,209.19c0,.21,0,.37-.17.41a.29.29,0,0,1-.36-.25c-.2-.67-.4-1.34-.58-2,0-.2,0-.4.21-.46s.26.08.31.22C86.42,207.82,86.62,208.54,86.8,209.19Z"/><path class="cls-30" d="M97.64,247.09c0,.17,0,.35-.19.41s-.3-.08-.35-.25c-.19-.69-.39-1.39-.57-2.09,0-.16,0-.35.2-.38a.29.29,0,0,1,.32.23C97.25,245.7,97.44,246.4,97.64,247.09Z"/><path class="cls-21" d="M93.57,232.85c0,.24,0,.42-.22.45a.29.29,0,0,1-.31-.24c-.2-.69-.4-1.39-.59-2.08a.32.32,0,0,1,.19-.41.25.25,0,0,1,.32.2C93.18,231.48,93.38,232.2,93.57,232.85Z"/><path class="cls-21" d="M90.87,223.41c0,.17,0,.34-.19.41s-.3-.09-.34-.25c-.2-.7-.4-1.4-.58-2.1,0-.16,0-.35.2-.38a.3.3,0,0,1,.32.23C90.48,222,90.67,222.71,90.87,223.41Z"/><path class="cls-23" d="M89.54,218.73c0,.2-.05.35-.23.39s-.25-.12-.29-.24c-.22-.72-.43-1.44-.64-2.15a.28.28,0,0,1,.14-.36.29.29,0,0,1,.38.22C89.12,217.3,89.33,218,89.54,218.73Z"/><path class="cls-21" d="M87.06,212.14c0-.28,0-.47.21-.5s.26.12.3.25c.21.69.4,1.39.6,2.08a.3.3,0,0,1-.19.4c-.15.06-.27-.07-.31-.2C87.45,213.46,87.24,212.74,87.06,212.14Z"/><path class="cls-21" d="M94,235.32a.3.3,0,0,1,.28.19c.22.74.44,1.47.64,2.21a.28.28,0,0,1-.18.34.26.26,0,0,1-.32-.2c-.21-.72-.41-1.43-.6-2.15A.3.3,0,0,1,94,235.32Z"/><path class="cls-31" d="M186.61,207.91a2.88,2.88,0,0,1,0,.3c0,.26.1.67-.3.67s-.2-.43-.26-.67a.37.37,0,0,1,0-.21c.07-.29-.19-.81.22-.84S186.5,207.71,186.61,207.91Z"/><path class="cls-17" d="M61.19,205c-.3-.14-.83.17-.84-.28s.53-.31.83-.31.86-.2.85.28S61.45,204.85,61.19,205Z"/><path class="cls-22" d="M98.7,250.79c0,.19,0,.33-.21.37a.24.24,0,0,1-.28-.16q-.21-.6-.36-1.2a.33.33,0,0,1,.17-.28.26.26,0,0,1,.33.17C98.48,250.07,98.59,250.45,98.7,250.79Z"/><path class="cls-32" d="M61,302.53c.23.09.65-.16.65.27s-.4.29-.66.3-.66.08-.65-.31S60.77,302.62,61,302.53Z"/><path class="cls-6" d="M147,172c0-1.48,0-3,0-4.44a2.6,2.6,0,0,1,2.6-2.74,2.64,2.64,0,0,1,2.62,2.73q0,4.52,0,9a2.61,2.61,0,1,1-5.22,0C147,175,147,173.51,147,172Z"/><path class="cls-6" d="M190,278.26v9a2.62,2.62,0,1,1-5.22.05q0-9.06,0-18.12a2.62,2.62,0,0,1,5.09-1,3.12,3.12,0,0,1,.13,1.05Z"/><path class="cls-6" d="M78.63,221.05c0,1.52,0,3,0,4.57a2.54,2.54,0,0,1-2.38,2.63,2.57,2.57,0,0,1-2.82-2.51c-.05-3.12,0-6.24,0-9.36a2.6,2.6,0,0,1,5.2.16C78.64,218.05,78.63,219.55,78.63,221.05Z"/><path class="cls-6" d="M186.36,174.65h-4.43a2.63,2.63,0,0,1-2.78-2.63,2.57,2.57,0,0,1,2.74-2.58h8.94a2.61,2.61,0,1,1,0,5.21Z"/><path class="cls-6" d="M186.35,191c-1.52,0-3,0-4.57,0a2.62,2.62,0,0,1-1.3-4.9,2.5,2.5,0,0,1,1.28-.31h9.15a2.52,2.52,0,0,1,2.64,2.51,2.55,2.55,0,0,1-2.62,2.7C189.4,191,187.88,191,186.35,191Z"/></g></g></g></svg>