<svg xmlns="http://www.w3.org/2000/svg" viewBox="0 0 99.54 99.54"><defs><style>.cls-1{fill:#fff;}</style></defs><title>SettingsIcon</title><g id="Lager_2" data-name="Lager 2"><g id="Lager_1-2" data-name="Lager 1"><path class="cls-1" d="M97.17,40.19,85.23,38.41a37.42,37.42,0,0,0-2.47-5.91L89.84,23a2.48,2.48,0,0,0,0-3.51l-10-10a2.29,2.29,0,0,0-3.35,0l-9.65,7.16a37.44,37.44,0,0,0-6-2.48L59.14,2.48A2.49,2.49,0,0,0,56.66,0H42.55a2.3,2.3,0,0,0-2.36,2.37L38.45,14.16a38.2,38.2,0,0,0-6.07,2.52L23,9.69a2.52,2.52,0,0,0-3.51,0l-10,10a2.29,2.29,0,0,0,0,3.35l7.07,9.53A35.9,35.9,0,0,0,14,38.67L2.48,40.4A2.48,2.48,0,0,0,0,42.87V57a2.31,2.31,0,0,0,2.37,2.37l11.72,1.73a37.1,37.1,0,0,0,2.56,6.12L9.7,76.58a2.5,2.5,0,0,0,0,3.51l10,10a2.31,2.31,0,0,0,3.35,0L32.6,83a38.75,38.75,0,0,0,6.06,2.49L40.4,97.06a2.48,2.48,0,0,0,2.47,2.48H57a2.31,2.31,0,0,0,2.37-2.38L61.11,85.3a36.45,36.45,0,0,0,6-2.51l9.51,7a2.48,2.48,0,0,0,3.51,0l10-10a2.31,2.31,0,0,0,0-3.35l-7.2-9.7a34.92,34.92,0,0,0,2.44-5.92l11.76-1.75a2.48,2.48,0,0,0,2.48-2.48V42.55A2.3,2.3,0,0,0,97.17,40.19ZM49.66,79.84A30.07,30.07,0,1,1,79.73,49.77,30.06,30.06,0,0,1,49.66,79.84Z"/></g></g></svg>