<svg xmlns="http://www.w3.org/2000/svg" viewBox="0 0 124.35 103.83"><defs><style>.cls-1{fill:#fff;}</style></defs><title>TasksIcon</title><g id="Lager_2" data-name="Lager 2"><g id="Lager_1-2" data-name="Lager 1"><path class="cls-1" d="M104.94,24.55V13c0-7.14-5.34-13-11.85-13H22C15.47,0,10.14,5.84,10.14,13v4.2a.13.13,0,0,0,.12.12H17.7a6.21,6.21,0,0,1,5.93,4.35,6.92,6.92,0,0,1-1.4,6.73A5.7,5.7,0,0,1,18,30.28H10.26a.14.14,0,0,0-.12.13v4.07a.14.14,0,0,0,.12.13H17.7A6.21,6.21,0,0,1,23.63,39a6.9,6.9,0,0,1-1.4,6.72A5.71,5.71,0,0,1,18,47.59H10.26a.13.13,0,0,0-.12.13v4.06a.13.13,0,0,0,.12.13H17.7a6.21,6.21,0,0,1,5.93,4.35A6.92,6.92,0,0,1,22.23,63,5.7,5.7,0,0,1,18,64.89H10.26a.14.14,0,0,0-.12.13v4.07a.14.14,0,0,0,.12.13H17.7a6.21,6.21,0,0,1,5.93,4.35,6.9,6.9,0,0,1-1.4,6.72A5.71,5.71,0,0,1,18,82.2H10.26a.13.13,0,0,0-.12.13v8.52c0,7.14,5.33,13,11.85,13h71.1c6.51,0,11.85-5.84,11.85-13V49l-32,35.07c-5.33-.69-12.83,4.26-13.94,3s2.74-8.72,2.76-15.27Zm-75,70.63a2,2,0,1,1-3.95,0V8.65a2,2,0,1,1,3.95,0ZM64,71c-.3,5.8-4.05,12.63-3.11,13.65s7.79-3.74,12.47-3.4l31.54-34.54V26.2Z"/><rect class="cls-1" y="18.58" width="22.25" height="10.42" rx="2.11"/><rect class="cls-1" y="35.89" width="22.25" height="10.42" rx="2.11"/><rect class="cls-1" y="53.19" width="22.25" height="10.42" rx="2.11"/><rect class="cls-1" y="70.5" width="22.25" height="10.42" rx="2.11"/><path class="cls-1" d="M124.35,24.29a3.48,3.48,0,0,1-1.09,2.32L104.94,46.68,73.4,81.22c-4.68-.34-11.54,4.44-12.47,3.4S63.74,76.77,64,71l40.9-44.77,9-9.85c2.57-2.81,4.29-.08,6.86,2.73C122.57,21.07,124.35,22.58,124.35,24.29Z"/></g></g></svg>