<svg xmlns="http://www.w3.org/2000/svg" viewBox="0 0 104.74 83.46"><defs><style>.cls-1{fill:#fff;}</style></defs><title>VolumeSettingsIcon</title><g id="Lager_2" data-name="Lager 2"><g id="Lager_1-2" data-name="Lager 1"><path class="cls-1" d="M13.6,42.54a14.23,14.23,0,0,0-4.4.65,10.81,10.81,0,0,0-3.86,2.2A12.36,12.36,0,0,0,2.61,48.9,19.23,19.23,0,0,0,1,53.06a30.72,30.72,0,0,0-.79,4.4,45.42,45.42,0,0,0,0,8.93A30.72,30.72,0,0,0,1,70.79,19.23,19.23,0,0,0,2.61,75a12.59,12.59,0,0,0,2.73,3.52A10.94,10.94,0,0,0,9.2,80.66a14.23,14.23,0,0,0,4.4.65A18.69,18.69,0,0,0,14.22,77c.11-1.26.23-2.74.35-4.36.09-1.36.19-2.83.27-4.35s.15-2.89.22-4.37.11-2.92.15-4.37.06-3,.07-4.37,0-3,0-4.37c-.05-1.64-.13-3.12-.27-4.36C14.71,44.05,14.27,42.54,13.6,42.54Z"/><path class="cls-1" d="M20.4,41.82c-2.24,0-2.72,1.94-2.72,4.31V77.72c0,2.37.48,4.31,2.72,4.31a4,4,0,0,0,2.93-1.31,4.46,4.46,0,0,0,1.16-3V46.13a4.42,4.42,0,0,0-1.16-3A4,4,0,0,0,20.4,41.82Z"/><path class="cls-1" d="M91.14,44c-.67,0-1.1,1.52-1.36,4-.13,1.24-.22,2.71-.27,4.35,0,1.36-.05,2.83,0,4.37s0,2.88.07,4.37.09,2.91.15,4.36.13,3,.21,4.37.18,3,.28,4.36c.11,1.63.23,3.1.35,4.36.24,2.63.47,4.29.61,4.29a14,14,0,0,0,4.41-.66,10.79,10.79,0,0,0,3.86-2.19,12.65,12.65,0,0,0,2.72-3.51,18.62,18.62,0,0,0,1.6-4.17,28,28,0,0,0,.79-4.39,45.52,45.52,0,0,0,0-8.94,28,28,0,0,0-.79-4.39,18.62,18.62,0,0,0-1.6-4.17,12.36,12.36,0,0,0-2.73-3.51,10.66,10.66,0,0,0-3.85-2.19A14,14,0,0,0,91.14,44Z"/><path class="cls-1" d="M84.34,43.26a4,4,0,0,0-2.92,1.3,4.41,4.41,0,0,0-1.16,3v31.6a4.41,4.41,0,0,0,1.16,3,4,4,0,0,0,2.92,1.3c2.24,0,2.72-1.93,2.72-4.3V47.56C87.06,45.2,86.58,43.26,84.34,43.26Z"/><path class="cls-1" d="M91.35,35a42.94,42.94,0,0,0-.91-4.29c-.38-1.42-.83-2.81-1.34-4.17a42.43,42.43,0,0,0-1.75-4,43,43,0,0,0-2.14-3.82,43.44,43.44,0,0,0-2.53-3.58q-1.37-1.72-2.88-3.3a41,41,0,0,0-3.22-3,40.42,40.42,0,0,0-3.52-2.6A37.71,37.71,0,0,0,69.27,4a37.7,37.7,0,0,0-8.21-3A38.43,38.43,0,0,0,56.75.26,36.94,36.94,0,0,0,48,.26,38.43,38.43,0,0,0,43.69,1a39.9,39.9,0,0,0-4.2,1.27,38.59,38.59,0,0,0-4,1.75,36.63,36.63,0,0,0-3.79,2.2A39.2,39.2,0,0,0,25,11.81a43.18,43.18,0,0,0-2.89,3.3,41.07,41.07,0,0,0-2.52,3.58c-.78,1.23-1.49,2.51-2.15,3.82s-1.23,2.64-1.75,4-1,2.75-1.33,4.17-.68,2.83-.92,4.29a3.37,3.37,0,0,0,3.23,4H18a3.31,3.31,0,0,0,3.2-2.85,35.26,35.26,0,0,1,.94-4,34.84,34.84,0,0,1,3.23-7.54,34.5,34.5,0,0,1,2.27-3.43A33.25,33.25,0,0,1,30.35,18a31.89,31.89,0,0,1,3-2.78,31.22,31.22,0,0,1,3.36-2.36A30.73,30.73,0,0,1,40.39,11a29.1,29.1,0,0,1,3.86-1.39,29.89,29.89,0,0,1,4-.85,30.16,30.16,0,0,1,8.2,0,29.89,29.89,0,0,1,4,.85A28.73,28.73,0,0,1,64.36,11,30.6,30.6,0,0,1,68,12.87a32.83,32.83,0,0,1,3.37,2.36,34.53,34.53,0,0,1,3,2.78,31.73,31.73,0,0,1,2.66,3.12,34.5,34.5,0,0,1,2.27,3.43,34.13,34.13,0,0,1,1.84,3.68,36.12,36.12,0,0,1,1.39,3.86,35.26,35.26,0,0,1,.94,4A3.32,3.32,0,0,0,86.71,39h1.41A3.37,3.37,0,0,0,91.35,35Z"/></g></g></svg>