<svg xmlns="http://www.w3.org/2000/svg" viewBox="0 0 53.72 40.41"><defs><style>.cls-1{fill:#fff;}</style></defs><title>VolumeHigh</title><g id="Lager_2" data-name="Lager 2"><g id="Lager_1-2" data-name="Lager 1"><path class="cls-1" d="M35.24,7.89h-.36c-.66,0-1,1.09-.59,1.78A19.75,19.75,0,0,1,37.21,20a19.84,19.84,0,0,1-2.92,10.7c-.43.7-.08,1.79.58,1.79h.37a.7.7,0,0,0,.54-.3,20.52,20.52,0,0,0,3.73-12.37A20.08,20.08,0,0,0,35.77,8.19.67.67,0,0,0,35.24,7.89Z"/><path class="cls-1" d="M41.68,3.28h-.41c-.75,0-1.15,1.5-.66,2.45A31.64,31.64,0,0,1,43.89,20a31.83,31.83,0,0,1-3.28,14.7c-.49,1-.1,2.46.65,2.46h.42a.73.73,0,0,0,.6-.41,32.22,32.22,0,0,0,4.2-17,31.75,31.75,0,0,0-4.2-16A.76.76,0,0,0,41.68,3.28Z"/><path class="cls-1" d="M49.39.49C49.22.17,49,0,48.77,0h-.42c-.77,0-1.18,1.78-.68,2.92a42.87,42.87,0,0,1,3.38,17,43.1,43.1,0,0,1-3.38,17.56c-.5,1.15-.1,2.94.67,2.94h.43c.23,0,.45-.18.62-.49,1.1-2.09,4.44-9.3,4.32-20.3C53.6,9.21,50.46,2.52,49.39.49Z"/><path class="cls-1" d="M24.48,5.19,10,11.78H1.73A1.74,1.74,0,0,0,0,13.52V27.91a1.74,1.74,0,0,0,1.73,1.73H10l14.48,6.59c1.7,0,3.09-.95,3.09-2.12V7.32C27.57,6.15,26.18,5.19,24.48,5.19Z"/></g></g></svg>