<svg xmlns="http://www.w3.org/2000/svg" viewBox="0 0 289.53 383.9"><defs><style>.cls-1{fill:#fefefe;}</style></defs><title>FingerPointer</title><g id="Lager_2" data-name="Lager 2"><g id="Lager_2-2" data-name="Lager 2"><path class="cls-1" d="M76.63,208.85V151.93q0-59.71,0-119.43c0-10.76,3.13-20.09,12-26.71A28.87,28.87,0,0,1,134.2,23a48.63,48.63,0,0,1,1,10.43q0,26,.07,52c0,1.73-.64,4,1.33,5,1.81.93,3-1,4.3-1.86,14.38-9.07,32.51-5.06,41.33,9.57,2.47,4.11,4.33,4.65,8.52,2.18,17.06-10,37.95-1.36,43.57,17.78,1.68,5.77,1.68,5.77,6.72,3.06,19.48-10.44,42.31,2.75,43.43,24.84,1.33,26.11,3.16,52.18,4.52,78.28,1.9,36.42-.36,72.3-15.35,106.3a60.72,60.72,0,0,1-2.72,5.9c-6.27,10.75-10.72,21.77-10.42,34.74.21,9.15-4.46,12.63-13.76,12.65q-64.21.11-128.42,0c-9.45,0-14.15-4.41-13.57-13.9.56-9-2.61-15.14-9.32-21.15-14.12-12.66-27.31-26.37-41-39.53-4.1-4-6.45-8.81-8.51-13.94-9.8-24.43-19.22-49-28-73.81-2.1-5.91-6.83-9.77-10.62-14.34-13.58-16.4-7.44-40.41,12.58-47.6,9.89-3.55,19.45-2.07,27.86,4.41,6.06,4.68,11.91,9.65,17.68,14.68,5.55,4.85,8,11.35,8.88,18.49.49,3.94.87,7.88,1.3,11.83Zm16.6-81.71q0,48,0,96a26.1,26.1,0,0,1-.58,6.44c-1.3,5-5.35,6.41-9.9,6.93-4.11.47-7.49-1-9-4.83-4.5-11.85-10.71-22.89-15.67-34.54-4.56-10.7-14.69-16.29-24-22.36a6.1,6.1,0,0,0-2.41-.57,13.16,13.16,0,0,0-13.59,6.43,14.78,14.78,0,0,0,1.31,16c4.31,5.65,10.19,10.15,12.71,17.14,9.13,25.39,18.47,50.7,28.64,75.7a28.14,28.14,0,0,0,6.52,9.9C82.46,314,97.5,328.88,112.72,343.57a24.86,24.86,0,0,1,8.13,18.19c0,5,2,6.22,6.53,6.2,37-.13,74-.07,110.94-.1,6.05,0,6.86-.78,6.86-7,0-5.75.46-11.33,3.48-16.4C270.29,308,275.34,268.17,273,226.85c-1.5-26.26-3.54-52.49-4.54-78.78-.33-8.7-5.19-14.06-12.87-14.18s-13.38,5.35-14,13.91c-.25,3.49,0,7-.37,10.48a10.06,10.06,0,0,1-9.77,9.56,10.64,10.64,0,0,1-11.51-8.27,30.16,30.16,0,0,1-.52-6.45c-.09-8.83.11-17.67-.18-26.49s-6.29-14.65-14.05-14.37-12.77,5.91-13,14.72c-.2,7.32-.38,14.65-.78,22-.31,5.85-4.34,9.65-9.95,9.76a10.57,10.57,0,0,1-10.81-9.13,45.79,45.79,0,0,1-.23-6c0-10.16.09-20.33-.15-30.49-.19-7.6-5.22-12.66-12.41-13.1-7-.43-12.7,4.28-13.93,11.61a40,40,0,0,0-.37,6.48c-.06,13.16.05,26.32-.16,39.48a12,12,0,0,1-10.74,11.84c-5.75.66-11.51-3.33-13.25-9.21a30.81,30.81,0,0,1-.82-8.92q0-55,0-109.95c0-4.66.17-9.35-.28-14a12.21,12.21,0,0,0-13.07-11.13,12.47,12.47,0,0,0-11.8,12c-.14,2.16-.13,4.33-.13,6.49Q93.23,80.91,93.23,127.14Z"/></g></g></svg>