<svg xmlns="http://www.w3.org/2000/svg" viewBox="0 0 191.84 695.92"><defs><style>.cls-1{fill:#251f1f;}</style></defs><title>GatheringSilhouette</title><g id="Lager_2" data-name="Lager 2"><g id="Lager_2-2" data-name="Lager 2"><path class="cls-1" d="M186.84,425h.63l-.63-101.43c0-.41,0-.82-.07-1.23a18.92,18.92,0,0,0-.15-3.35S171,206.61,169,191.71c-2.3-8.92-13.17-12.36-22.56-10.21a57.93,57.93,0,0,0-14.79-7.68,141.76,141.76,0,0,1-2.14-16.55,48.64,48.64,0,0,0,2.14-6.11A68.88,68.88,0,0,0,147.76,122c5.87-21.29,7.91-55.65,6.68-72.51C152.89,28.23,135.05,4.57,105.34.67c-.92-.14-1.8-.24-2.64-.32C63-3.49,39.05,25.18,37.57,50.22c-1,16.87,1.52,51.21,7.69,72.41a69.69,69.69,0,0,0,15,27.28v23.63l.61.37A221.4,221.4,0,0,0,39,180.08c-.71.24-1.37.51-2,.79-8.6-.42-17.25,3.54-19,11.57C16.32,207.67,4.28,322.53,4.28,322.53a19,19,0,0,0,.56,6.91l-.12,96.09h.2c-1.57,5.41-6.16,22.17-4.6,28.06,1.87,7.07,8.79,25,13.62,29s9,1.4,8.15-1.48c0,0,6.69,4.87,9-.75,0,0,4.11,3.4,8.51-1.15,0,0,.26,1.55,3.77,1.25V658.39c-6.72,7.41-11.06,19-11.06,32,0,1.86.09,3.7.27,5.5H89c.17-1.8.26-3.64.26-5.5A53.83,53.83,0,0,0,85.36,670V445a222.62,222.62,0,0,0,26.72,0V662.58c-4.84,7.26-7.81,17-7.81,27.84,0,1.86.09,3.7.27,5.5H161c.17-1.8.26-3.64.26-5.5,0-10.3-2.7-19.69-7.16-26.84V480.08a5.93,5.93,0,0,0,6.83-.27c2.3,5.61,9,.71,9,.71-.87,2.88,3.34,5.45,8.15,1.44s11.65-22,13.48-29.07C193.05,447,188.48,430.56,186.84,425ZM43.32,462.16h0v0Z"/></g></g></svg>