<svg xmlns="http://www.w3.org/2000/svg" viewBox="0 0 236 226.24"><defs><style>.cls-1{fill:#d19351;}.cls-2{fill:#efba6a;}.cls-3{fill:#3b2e2d;}</style></defs><title>AngryEmoji</title><g id="Lager_2" data-name="Lager 2"><g id="Lager_2-2" data-name="Lager 2"><ellipse class="cls-1" cx="118" cy="113.12" rx="118" ry="113.12"/><ellipse class="cls-2" cx="109" cy="113.12" rx="109" ry="113.12"/><rect class="cls-3" x="30.98" y="65.8" width="65.63" height="14" rx="7" transform="translate(70.16 -23.79) rotate(45)"/><rect class="cls-3" x="139.37" y="67.05" width="69.16" height="14" rx="7" transform="translate(349.32 3.4) rotate(135)"/><ellipse class="cls-3" cx="67.5" cy="94.5" rx="11.5" ry="15.5"/><ellipse class="cls-3" cx="168.5" cy="94.5" rx="11.5" ry="15.5"/><path class="cls-3" d="M150.51,167.19c-15.81-22.27-50.21-22.27-66,0-3.63,4.94-9,9.33-13.53,8.06h0c-4.5-1.22-5.67-10.49-.26-18.08,22.41-31.58,71.19-31.58,93.6,0,5.41,7.59,4.24,16.86-.26,18.08h0C159.53,176.52,154.14,172.13,150.51,167.19Z"/></g></g></svg>