<svg xmlns="http://www.w3.org/2000/svg" viewBox="0 0 236 226.24"><defs><style>.cls-1{fill:#d19351;}.cls-2{fill:#efba6a;}.cls-3{fill:#3b2e2d;}</style></defs><title>HappyEmoji</title><g id="Lager_2" data-name="Lager 2"><g id="Lager_2-2" data-name="Lager 2"><ellipse class="cls-1" cx="118" cy="113.12" rx="118" ry="113.12"/><ellipse class="cls-2" cx="108.5" cy="113.12" rx="108.5" ry="113.12"/><path class="cls-3" d="M82,80.5a19.54,19.54,0,0,1-1.65,8C78.34,84,74.68,81,70.5,81s-7.84,3-9.85,7.5a19.54,19.54,0,0,1-1.65-8C59,71.94,64.15,65,70.5,65S82,71.94,82,80.5Z"/><path class="cls-3" d="M177,80.5a19.54,19.54,0,0,1-1.65,8c-2-4.49-5.67-7.5-9.85-7.5s-7.84,3-9.85,7.5a19.54,19.54,0,0,1-1.65-8c0-8.56,5.15-15.5,11.5-15.5S177,71.94,177,80.5Z"/><path class="cls-3" d="M181,155.87a97,97,0,0,1-127,0c-6.69-5.81-7.66-14.66-3.1-18.18h0c4.57-3.55,11.84-2,16.85,2.31a76,76,0,0,0,99.48,0c5-4.32,12.28-5.86,16.85-2.31h0C188.65,141.21,187.68,150.06,181,155.87Z"/></g></g></svg>