<svg xmlns="http://www.w3.org/2000/svg" viewBox="0 0 236 226.24"><defs><style>.cls-1{fill:#d19351;}.cls-2{fill:#efba6a;}.cls-3{fill:#3b2e2d;}</style></defs><title>KEKW</title><g id="Lager_2" data-name="Lager 2"><g id="Lager_2-2" data-name="Lager 2"><ellipse class="cls-1" cx="118" cy="113.12" rx="118" ry="113.12"/><ellipse class="cls-2" cx="108" cy="113.12" rx="108" ry="113.12"/><path class="cls-3" d="M80,84.5a19.54,19.54,0,0,1-1.65,8C76.34,88,72.68,85,68.5,85s-7.84,3-9.85,7.5a19.54,19.54,0,0,1-1.65-8C57,75.94,62.15,69,68.5,69S80,75.94,80,84.5Z"/><path class="cls-3" d="M178,83.5a19.54,19.54,0,0,1-1.65,8c-2-4.49-5.67-7.5-9.85-7.5s-7.84,3-9.85,7.5a19.54,19.54,0,0,1-1.65-8c0-8.56,5.15-15.5,11.5-15.5S178,74.94,178,83.5Z"/><path class="cls-3" d="M176.46,132A8.66,8.66,0,0,1,185,142.24C179.51,170.51,151.6,192,118,192s-61.51-21.49-67-49.76A8.66,8.66,0,0,1,59.54,132Z"/></g></g></svg>