<svg xmlns="http://www.w3.org/2000/svg" viewBox="0 0 36.49 55"><defs><style>.cls-1{fill:#33756d;}.cls-2{fill:#6eaaa3;}</style></defs><title>Bag</title><g id="Lager_2" data-name="Lager 2"><g id="Lager_2-2" data-name="Lager 2"><path class="cls-1" d="M31,.26a5.1,5.1,0,0,0-3.26,4.85V8.59a9.2,9.2,0,0,1-9.2,9.2h-.67a9.19,9.19,0,0,1-9.19-9.2V5.11A5.11,5.11,0,0,0,5.45.26,4,4,0,0,0,0,4V49.82A5.18,5.18,0,0,0,5.18,55H31.31a5.18,5.18,0,0,0,5.18-5.18V4A4,4,0,0,0,31,.26Zm3.63,39.86H1.82V38.3H34.67Z"/><path class="cls-2" d="M34.67,49.82a3.38,3.38,0,0,1-3.36,3.37H5.18a3.38,3.38,0,0,1-3.36-3.37V42.11H34.67Z"/><rect class="cls-2" x="1.82" y="38.3" width="32.85" height="1.82"/><path class="cls-2" d="M1.82,36.3V4A2.18,2.18,0,0,1,4,1.82a2.9,2.9,0,0,1,2.9,2.9V8.59a11,11,0,0,0,11,11h.67a11,11,0,0,0,11-11V4.72a2.9,2.9,0,0,1,2.9-2.9A2.17,2.17,0,0,1,34.67,4V36.3Z"/></g></g></svg>