<svg xmlns="http://www.w3.org/2000/svg" viewBox="0 0 16 30.93"><defs><style>.cls-1{fill:#78949d;}</style></defs><title>Can</title><g id="Lager_2" data-name="Lager 2"><g id="Lager_2-2" data-name="Lager 2"><path class="cls-1" d="M16,24V5.76C16,4.24,14.54.5,13.3.5h.42a.1.1,0,0,0,.1-.1V.1a.09.09,0,0,0-.1-.1H2.28a.09.09,0,0,0-.1.1V.4a.1.1,0,0,0,.1.1H2.7C1.46.5,0,4.24,0,5.76V24c0,3.2-.54,5.83,3.48,5.92l.23.71c0,.16.28.29.62.29h7.82c.34,0,.62-.13.62-.29L13,29.9C16.48,29.6,16,27.07,16,24Z"/></g></g></svg>