<svg xmlns="http://www.w3.org/2000/svg" viewBox="0 0 21.15 21.8"><defs><style>.cls-1{fill:#6eaaa3;}</style></defs><title>Cup</title><g id="Lager_2" data-name="Lager 2"><g id="Lager_2-2" data-name="Lager 2"><path class="cls-1" d="M20.75,2.06h-.7a.42.42,0,0,1-.42-.43V1.27A1.27,1.27,0,0,0,18.36,0H2.79A1.27,1.27,0,0,0,1.52,1.27v.36a.43.43,0,0,1-.43.43H.4a.4.4,0,0,0-.4.4v.61a.4.4,0,0,0,.4.4H1.54L4.76,21.25c0,.3.38.55.84.55h10c.46,0,.83-.25.83-.55L19.61,3.47h1.14a.4.4,0,0,0,.4-.4V2.46A.4.4,0,0,0,20.75,2.06Z"/></g></g></svg>