<svg xmlns="http://www.w3.org/2000/svg" viewBox="0 0 7.93 41.84"><defs><style>.cls-1{fill:#78949d;}</style></defs><title>Fork</title><g id="Lager_2" data-name="Lager 2"><g id="Lager_2-2" data-name="Lager 2"><path class="cls-1" d="M7.21,7.46,7,3.57,7.93,0H7.85L6.56,3.58l-.11,3a2.09,2.09,0,0,0-1.06-.38L5,4l.63-4H5.58L4.39,5.71l.1.44H3.9l.26-3.29L3.1,0H3l.66,2.71-.5,3.44H3.13A2,2,0,0,0,2,6.53L.64,3.73.94,0H.86L0,4.1l1.42,3a2,2,0,0,0-.3,1v2.74a2,2,0,0,0,2,2,.3.3,0,0,1,.3.31L1.73,27.87,2.5,40.14a1.7,1.7,0,0,0,3.4,0L4.22,25.93,5,13.2a.3.3,0,0,1,.3-.31h0a2,2,0,0,0,2-2V8.15a2,2,0,0,0-.13-.69Z"/></g></g></svg>