<svg xmlns="http://www.w3.org/2000/svg" viewBox="0 0 18.81 63.92"><defs><style>.cls-1{fill:#fef8e8;}</style></defs><title>GlassBottle_002</title><g id="Lager_2" data-name="Lager 2"><g id="Lager_2-2" data-name="Lager 2"><path class="cls-1" d="M16.51,24.38a2.42,2.42,0,0,1-2.41-2.13L11.71,3.46A2.39,2.39,0,0,0,11.4,2.3h.88a1.15,1.15,0,1,0,0-2.3H6.53a1.15,1.15,0,1,0,0,2.3h.89A2.29,2.29,0,0,0,7.1,3.46L4.72,22.25A2.44,2.44,0,0,1,2.3,24.38,2.31,2.31,0,0,0,0,26.68V61.62a2.31,2.31,0,0,0,2.3,2.3H16.51a2.31,2.31,0,0,0,2.3-2.3V26.68A2.31,2.31,0,0,0,16.51,24.38Z"/></g></g></svg>