<svg xmlns="http://www.w3.org/2000/svg" viewBox="0 0 16.89 61.04"><defs><style>.cls-1{fill:#fef8e8;}</style></defs><title>GlassBottle_001</title><g id="Lager_2" data-name="Lager 2"><g id="Lager_2-2" data-name="Lager 2"><path class="cls-1" d="M11.13,19.06V4.8h.43a.15.15,0,0,0,.15-.15V4a.15.15,0,0,0-.15-.15.15.15,0,0,0,.15-.15V3a.15.15,0,0,0-.15-.15.15.15,0,0,0,.15-.15V2.07a.15.15,0,0,0-.15-.15.15.15,0,0,0,.15-.15V1.11A.15.15,0,0,0,11.56,1a.15.15,0,0,0,.15-.15V.15A.15.15,0,0,0,11.56,0H5.33a.15.15,0,0,0-.15.15V.81A.15.15,0,0,0,5.33,1a.15.15,0,0,0-.15.15v.66a.15.15,0,0,0,.15.15.15.15,0,0,0-.15.15v.66a.15.15,0,0,0,.15.15A.15.15,0,0,0,5.18,3v.66a.15.15,0,0,0,.15.15A.15.15,0,0,0,5.18,4v.66a.15.15,0,0,0,.15.15h.43V19.06a8.48,8.48,0,0,0-5.76,8V58.74A2.31,2.31,0,0,0,2.3,61H14.59a2.31,2.31,0,0,0,2.3-2.3V27.07A8.48,8.48,0,0,0,11.13,19.06Z"/></g></g></svg>