<svg xmlns="http://www.w3.org/2000/svg" viewBox="0 0 18.04 31.5"><defs><style>.cls-1{fill:#fef8e8;}</style></defs><title>Jar</title><g id="Lager_2" data-name="Lager 2"><g id="Lager_2-2" data-name="Lager 2"><path class="cls-1" d="M16.54,5.74h.83a.48.48,0,0,0,.48-.48.47.47,0,0,0-.48-.48.48.48,0,0,0,.06-1,.48.48,0,0,0,.37-.46.49.49,0,0,0-.48-.48.48.48,0,1,0,0-1,.48.48,0,1,0,0-1A.49.49,0,0,0,17.8.48.49.49,0,0,0,17.32,0H.81A.49.49,0,0,0,.33.48.49.49,0,0,0,.81,1a.48.48,0,0,0,0,1,.48.48,0,0,0,0,1,.48.48,0,0,0-.06,1,.47.47,0,0,0-.36.47.48.48,0,0,0,.48.48.47.47,0,0,0-.48.48.48.48,0,0,0,.48.48h.64A2.3,2.3,0,0,0,0,7.89V26.76A4.76,4.76,0,0,0,4.75,31.5h8.54A4.75,4.75,0,0,0,18,26.76V7.89A2.3,2.3,0,0,0,16.54,5.74Z"/></g></g></svg>