<svg xmlns="http://www.w3.org/2000/svg" viewBox="0 0 17.4 14.87"><defs><style>.cls-1{fill:#78949d;}</style></defs><title>Nails</title><g id="Lager_2" data-name="Lager 2"><g id="Lager_2-2" data-name="Lager 2"><path class="cls-1" d="M8.82,5.67c-1,0-1.76.27-1.76.61s.66.56,1.52.6l.22,8h0l.22-8c.85,0,1.51-.29,1.51-.6S9.79,5.67,8.82,5.67Z"/><path class="cls-1" d="M16.14,6.51c-.85-.47-1.67-.61-1.83-.32s.3.81,1,1.26l-3.69,7.09,0,0,4.08-6.87c.77.38,1.46.48,1.61.21S17,7,16.14,6.51Z"/><path class="cls-1" d="M3.22,1c-.14-.31-1-.23-1.85.17S-.12,2.12,0,2.42s.83.24,1.63-.07L5.14,9.54l0,0L2.09,2.15C2.85,1.76,3.34,1.26,3.22,1Z"/><path class="cls-1" d="M14.28,3.5c.33,0,.53-.84.45-1.8S14.31,0,14,0s-.5.71-.47,1.56l-7.94.91v0l8-.47C13.66,2.89,14,3.52,14.28,3.5Z"/></g></g></svg>