<svg xmlns="http://www.w3.org/2000/svg" viewBox="0 0 15.66 51.45"><defs><style>.cls-1{fill:#6eaaa3;}</style></defs><title>PlasticBottle_001</title><g id="Lager_2" data-name="Lager 2"><g id="Lager_2-2" data-name="Lager 2"><path class="cls-1" d="M15.66,23.75V14.22a7.84,7.84,0,0,0-4-6.81V3.61a3.62,3.62,0,0,0-7.23,0V7.15A7.88,7.88,0,0,0,0,14.22v9.53a3.25,3.25,0,0,0,1.52,2.74v1.43a2.53,2.53,0,0,0,0,4.64v1.15A2.53,2.53,0,0,0,0,36H0a2.54,2.54,0,0,0,1.52,2.32v1.15A2.54,2.54,0,0,0,0,41.81H0a2.56,2.56,0,0,0,1.52,2.32v1.08A1.84,1.84,0,0,0,0,47a4.45,4.45,0,0,0,4.43,4.44h6.8A4.45,4.45,0,0,0,15.66,47a1.83,1.83,0,0,0-1.47-1.79V44.1a2.52,2.52,0,0,0,1.47-2.29h0a2.54,2.54,0,0,0-1.47-2.3V38.32A2.54,2.54,0,0,0,15.66,36h0a2.52,2.52,0,0,0-1.47-2.29v-1.2a2.52,2.52,0,0,0,0-4.58V26.46A3.23,3.23,0,0,0,15.66,23.75Z"/></g></g></svg>