<svg xmlns="http://www.w3.org/2000/svg" viewBox="0 0 18.59 54.38"><defs><style>.cls-1{fill:#6eaaa3;}</style></defs><title>PlasticBottle_003</title><g id="Lager_2" data-name="Lager 2"><g id="Lager_2-2" data-name="Lager 2"><path class="cls-1" d="M18.35,37.62A5,5,0,0,1,17,34.38v-1a1.1,1.1,0,0,0-.62-.92,1.64,1.64,0,0,1-.91-1.41V26.49c0-.16.18-.28.4-.28,1.15,0,2.08-.66,2.08-1.47V11c0-.65-.75-1.18-1.67-1.18h0c-2.15,0-3.88-1.22-3.88-2.74V4.33s0-.07,0-.11a1.25,1.25,0,0,0,.57-1V1.27A1.27,1.27,0,0,0,11.66,0H6.93A1.27,1.27,0,0,0,5.67,1.27v1.9a1.25,1.25,0,0,0,.57,1s0,.08,0,.11V7.11c0,1.52-1.73,2.74-3.88,2.74H2.06C1.14,9.85.39,10.38.39,11V24.74c0,.81.93,1.47,2.08,1.47h.14c.22,0,.4.12.4.28v4.44a1.77,1.77,0,0,1-1,1.53,1.13,1.13,0,0,0-.65.94v1.3A4.58,4.58,0,0,1,.23,37.63a.92.92,0,0,0-.23.6v15c0,.65.75,1.18,1.67,1.18H16.91c.93,0,1.68-.53,1.68-1.18v-15A.92.92,0,0,0,18.35,37.62Z"/></g></g></svg>