<svg xmlns="http://www.w3.org/2000/svg" viewBox="0 0 39.5 61.96"><defs><style>.cls-1{fill:#6eaaa3;}</style></defs><title>PlasticCannister</title><g id="Lager_2" data-name="Lager 2"><g id="Lager_2-2" data-name="Lager 2"><path class="cls-1" d="M37.17,16.46a1,1,0,0,1-1-.75L33.37,4.36a3,3,0,0,0-.15-1,1.74,1.74,0,0,0-.5-3.4H25.36a1.74,1.74,0,0,0-.31,3.45,2.94,2.94,0,0,0-.14.91v.52a6.12,6.12,0,0,1-.13,1.2A1.51,1.51,0,0,0,24.3,6H4A1.59,1.59,0,0,0,2.32,7.51v9A2.33,2.33,0,0,0,0,18.78V59.63A2.34,2.34,0,0,0,2.32,62H37.17a2.34,2.34,0,0,0,2.33-2.33V18.78A2.33,2.33,0,0,0,37.17,16.46Zm-30.31,0V13.94A1.59,1.59,0,0,1,8.5,12.43H19.76a1.63,1.63,0,0,1,.59.11,16.81,16.81,0,0,1-9.89,3.92Z"/></g></g></svg>