<svg xmlns="http://www.w3.org/2000/svg" viewBox="0 0 8.92 38.03"><defs><style>.cls-1{fill:#78949d;}</style></defs><title>Spoon</title><g id="Lager_2" data-name="Lager 2"><g id="Lager_2-2" data-name="Lager 2"><path class="cls-1" d="M8.92,7.68C8.92,3.44,6.93,0,4.46,0S0,3.44,0,7.68A10.11,10.11,0,0,0,1.9,14V15.2a1.55,1.55,0,0,0,1.62,1.47h0a.23.23,0,0,1,.24.23l.61,9.4L3,36.78A1.32,1.32,0,0,0,4.39,38a1.32,1.32,0,0,0,1.37-1.25l.62-9L5,16.9a.24.24,0,0,1,.25-.23A1.55,1.55,0,0,0,6.87,15.2V14.14A9.85,9.85,0,0,0,8.92,7.68Z"/></g></g></svg>