<svg xmlns="http://www.w3.org/2000/svg" viewBox="0 0 32.99 55.89"><defs><style>.cls-1{fill:#78949d;}</style></defs><title>TinCan</title><g id="Lager_2" data-name="Lager 2"><g id="Lager_2-2" data-name="Lager 2"><polygon class="cls-1" points="29.81 18.1 27.65 17.71 28.7 19.64 26.58 19.05 27.44 21.07 25.39 20.29 26.05 22.38 24.09 21.39 24.52 23.54 22.69 22.33 22.85 24.52 21.2 23.08 21.04 25.27 19.64 23.59 19.09 25.71 18.06 23.78 17.04 25.72 16.54 23.59 15.02 25.16 15.19 22.98 13.25 23.99 14.1 21.97 11.94 22.34 13.33 20.65 11.15 20.46 12.89 19.12 10.79 18.5 12.74 17.5 10.77 16.54 12.85 15.83 11.02 14.62 13.16 14.17 11.48 12.76 13.67 12.54 12.14 10.96 14.34 10.96 12.97 9.25 15.16 9.45 13.95 7.62 16.11 8.01 15.06 6.08 17.18 6.67 16.32 4.65 18.37 5.43 17.71 3.34 19.67 4.33 19.24 2.18 21.07 3.38 20.91 1.2 22.56 2.63 22.72 0.45 24.12 2.13 24.67 0.01 25.7 1.94 26.72 0 27.21 2.13 28.74 0.56 28.57 2.74 30.51 1.73 29.66 3.75 31.82 3.37 30.43 5.07 32.61 5.26 30.87 6.59 32.97 7.22 31.02 8.22 32.99 9.18 30.91 9.89 32.74 11.1 30.59 11.55 32.27 12.96 30.09 13.18 31.61 14.75 29.42 14.75 30.79 16.47 28.6 16.27 29.81 18.1"/><ellipse class="cls-1" cx="12.12" cy="53.39" rx="12.12" ry="2.5"/><rect class="cls-1" x="0.46" y="21.37" width="23.41" height="32.21"/><rect class="cls-1" x="0.09" y="35.62" width="24.16" height="1.02" rx="0.26"/><rect class="cls-1" x="0.09" y="33.58" width="24.16" height="1.02" rx="0.26"/><rect class="cls-1" x="0.09" y="31.55" width="24.16" height="1.02" rx="0.26"/><rect class="cls-1" x="0.09" y="29.51" width="24.16" height="1.02" rx="0.26"/><rect class="cls-1" x="0.09" y="27.48" width="24.16" height="1.02" rx="0.26"/><rect class="cls-1" x="0.09" y="25.44" width="24.16" height="1.02" rx="0.26"/><rect class="cls-1" x="0.09" y="23.4" width="24.16" height="1.02" rx="0.26"/><rect class="cls-1" x="0.09" y="21.37" width="24.16" height="1.02" rx="0.26"/><rect class="cls-1" x="0.09" y="51.91" width="24.16" height="1.02" rx="0.26"/><rect class="cls-1" x="0.09" y="49.87" width="24.16" height="1.02" rx="0.26"/><rect class="cls-1" x="0.09" y="47.84" width="24.16" height="1.02" rx="0.26"/><rect class="cls-1" x="0.09" y="45.8" width="24.16" height="1.02" rx="0.26"/><rect class="cls-1" x="0.09" y="43.76" width="24.16" height="1.02" rx="0.26"/><rect class="cls-1" x="0.09" y="41.73" width="24.16" height="1.02" rx="0.26"/><rect class="cls-1" x="0.09" y="39.69" width="24.16" height="1.02" rx="0.26"/><rect class="cls-1" x="0.09" y="37.66" width="24.16" height="1.02" rx="0.26"/></g></g></svg>