<svg xmlns="http://www.w3.org/2000/svg" viewBox="0 0 179.67 215"><defs><style>.cls-1{fill:#1e1b35;}.cls-2{fill:#fefefe;}</style></defs><title>TrashBin_Glass</title><g id="Lager_2" data-name="Lager 2"><g id="Lager_2-2" data-name="Lager 2"><path class="cls-1" d="M176.87,68.79H70.42L1.62,0a5.59,5.59,0,0,0,0,7.87l22,22-4.3,4.3a.29.29,0,0,1-.09.09c-.27.27,0,1,.59,1.57L38.54,54.54c.6.59,1.31.86,1.57.59A.29.29,0,0,1,40.2,55l4.3-4.29L66.85,73.1a5.63,5.63,0,0,0,3.94,1.63,6.5,6.5,0,0,0,1.08-.13l7,127A13.38,13.38,0,0,0,92.22,215h62.86a13.38,13.38,0,0,0,13.38-13.38l7-127.12h1.44a2.81,2.81,0,0,0,2.8-2.8v-.11A2.81,2.81,0,0,0,176.87,68.79Zm-137-17.74c-.39.39-1.41,0-2.27-.86L24.17,36.77c-.86-.86-1.25-1.88-.86-2.27L25.78,32,42.33,48.58Z"/><ellipse class="cls-2" cx="122.74" cy="166.6" rx="6.62" ry="3.18"/><path class="cls-2" d="M132.54,123.44l-.51,5.83-4.32-4-5.7,1.32,2.43-5.33-.79-1.31H113.21v14.7a9.68,9.68,0,0,0,9,9.63v21.74a.53.53,0,0,0,.53.53.53.53,0,0,0,.53-.53V144.35a9.69,9.69,0,0,0,9.27-9.65V123.44Z"/><path class="cls-2" d="M122.54,102A39.5,39.5,0,1,0,162,141.5,39.51,39.51,0,0,0,122.54,102Zm0,76.54a37,37,0,1,1,37.05-37A37,37,0,0,1,122.54,178.54Z"/></g></g></svg>