<svg xmlns="http://www.w3.org/2000/svg" viewBox="0 0 179.67 215"><defs><style>.cls-1{fill:#523a64;}.cls-2{fill:#fefefe;}</style></defs><title>TrashBin_Plastic</title><g id="Lager_2" data-name="Lager 2"><g id="Lager_2-2" data-name="Lager 2"><path class="cls-1" d="M176.87,68.79H70.42L1.62,0a5.59,5.59,0,0,0,0,7.87l22,22-4.3,4.3a.29.29,0,0,1-.09.09c-.27.27,0,1,.59,1.57L38.54,54.54c.6.59,1.31.86,1.57.59A.29.29,0,0,1,40.2,55l4.3-4.29L66.85,73.1a5.63,5.63,0,0,0,3.94,1.63,6.5,6.5,0,0,0,1.08-.13l7,127A13.38,13.38,0,0,0,92.22,215h62.86a13.38,13.38,0,0,0,13.38-13.38l7-127.12h1.44a2.81,2.81,0,0,0,2.8-2.8v-.11A2.81,2.81,0,0,0,176.87,68.79Zm-137-17.74c-.39.39-1.41,0-2.27-.86L24.17,36.77c-.86-.86-1.25-1.88-.86-2.27L25.78,32,42.33,48.58Z"/><path class="cls-2" d="M123.78,97a40.5,40.5,0,1,0,40.5,40.5A40.5,40.5,0,0,0,123.78,97Zm0,78.48a38,38,0,1,1,38-38A38,38,0,0,1,123.78,175.48Z"/><path class="cls-2" d="M136.3,110.26a5.11,5.11,0,0,0-3.26,4.85v3.48a9.19,9.19,0,0,1-9.19,9.2h-.67a9.2,9.2,0,0,1-9.2-9.2v-3.48a5.1,5.1,0,0,0-3.26-4.85,4,4,0,0,0-5.45,3.73v45.83a5.18,5.18,0,0,0,5.18,5.18h26.13a5.18,5.18,0,0,0,5.18-5.18V114A4,4,0,0,0,136.3,110.26Zm3.64,49.56a3.37,3.37,0,0,1-3.36,3.36H110.45a3.37,3.37,0,0,1-3.36-3.36v-7.71h32.85Zm0-9.7H107.09V148.3h32.85Zm-32.85-3.82V114a2.18,2.18,0,0,1,2.17-2.17,2.89,2.89,0,0,1,2.91,2.9v3.87a11,11,0,0,0,11,11h.67a11,11,0,0,0,11-11v-3.87a2.9,2.9,0,0,1,2.9-2.9,2.17,2.17,0,0,1,2.18,2.17V146.3Z"/></g></g></svg>