<svg xmlns="http://www.w3.org/2000/svg" viewBox="0 0 179.67 215"><defs><style>.cls-1{fill:#33756d;}.cls-2{fill:#fefefe;}.cls-3{fill:#c9bcb0;}</style></defs><title>Trashbin_Metal</title><g id="Lager_2" data-name="Lager 2"><g id="Lager_2-2" data-name="Lager 2"><path class="cls-1" d="M176.87,68.79H70.42L1.62,0a5.59,5.59,0,0,0,0,7.87l22,22-4.3,4.3a.29.29,0,0,1-.09.09c-.27.27,0,1,.59,1.57L38.54,54.54c.6.59,1.31.86,1.57.59A.29.29,0,0,1,40.2,55l4.3-4.29L66.85,73.1a5.63,5.63,0,0,0,3.94,1.63,6.5,6.5,0,0,0,1.08-.13l7,127A13.38,13.38,0,0,0,92.22,215h62.86a13.38,13.38,0,0,0,13.38-13.38l7-127.12h1.44a2.81,2.81,0,0,0,2.8-2.8v-.11A2.81,2.81,0,0,0,176.87,68.79Zm-137-17.74c-.39.39-1.41,0-2.27-.86L24.17,36.77c-.86-.86-1.25-1.88-.86-2.27L25.78,32,42.33,48.58Z"/><polygon class="cls-2" points="140.07 129.16 137.92 128.77 138.96 130.7 136.84 130.11 137.7 132.13 135.65 131.34 136.31 133.44 134.35 132.45 134.78 134.6 132.95 133.39 133.11 135.58 131.46 134.14 131.3 136.33 129.9 134.64 129.35 136.77 128.32 134.84 127.31 136.78 126.81 134.65 125.28 136.22 125.46 134.03 123.52 135.05 124.36 133.03 122.21 133.4 123.59 131.71 121.41 131.52 123.15 130.18 121.05 129.56 123 128.55 121.03 127.6 123.11 126.89 121.28 125.68 123.43 125.23 121.75 123.81 123.93 123.6 122.41 122.02 124.6 122.02 123.23 120.31 125.42 120.51 124.21 118.67 126.37 119.07 125.33 117.14 127.44 117.72 126.58 115.71 128.63 116.49 127.97 114.4 129.93 115.39 129.5 113.23 131.33 114.44 131.17 112.25 132.83 113.69 132.98 111.5 134.38 113.19 134.93 111.07 135.96 113 136.98 111.06 137.48 113.19 139 111.62 138.83 113.8 140.77 112.79 139.92 114.81 142.08 114.43 140.69 116.13 142.87 116.32 141.13 117.65 143.23 118.28 141.28 119.28 143.25 120.24 141.18 120.95 143 122.16 140.86 122.61 142.54 124.02 140.35 124.23 141.88 125.81 139.68 125.81 141.05 127.53 138.87 127.33 140.07 129.16"/><ellipse class="cls-3" cx="122.39" cy="164.45" rx="12.12" ry="2.5"/><rect class="cls-3" x="110.73" y="132.43" width="23.41" height="32.21"/><rect class="cls-2" x="110.36" y="146.68" width="24.16" height="1.02" rx="0.26"/><rect class="cls-2" x="110.36" y="144.64" width="24.16" height="1.02" rx="0.26"/><rect class="cls-2" x="110.36" y="142.61" width="24.16" height="1.02" rx="0.26"/><rect class="cls-2" x="110.36" y="140.57" width="24.16" height="1.02" rx="0.26"/><rect class="cls-2" x="110.36" y="138.53" width="24.16" height="1.02" rx="0.26"/><rect class="cls-2" x="110.36" y="136.5" width="24.16" height="1.02" rx="0.26"/><rect class="cls-2" x="110.36" y="134.46" width="24.16" height="1.02" rx="0.26"/><rect class="cls-2" x="110.36" y="132.43" width="24.16" height="1.02" rx="0.26"/><rect class="cls-2" x="110.36" y="162.97" width="24.16" height="1.02" rx="0.26"/><rect class="cls-2" x="110.36" y="160.93" width="24.16" height="1.02" rx="0.26"/><rect class="cls-2" x="110.36" y="158.89" width="24.16" height="1.02" rx="0.26"/><rect class="cls-2" x="110.36" y="156.86" width="24.16" height="1.02" rx="0.26"/><rect class="cls-2" x="110.36" y="154.82" width="24.16" height="1.02" rx="0.26"/><rect class="cls-2" x="110.36" y="152.79" width="24.16" height="1.02" rx="0.26"/><rect class="cls-2" x="110.36" y="150.75" width="24.16" height="1.02" rx="0.26"/><rect class="cls-2" x="110.36" y="148.71" width="24.16" height="1.02" rx="0.26"/><path class="cls-2" d="M123.31,101a38.5,38.5,0,1,0,38.5,38.5A38.5,38.5,0,0,0,123.31,101Zm0,74.6a36.1,36.1,0,1,1,36.1-36.1A36.11,36.11,0,0,1,123.31,175.6Z"/></g></g></svg>