<svg xmlns="http://www.w3.org/2000/svg" viewBox="0 0 220.64 285.42"><defs><style>.cls-1{fill:#dce0e1;}.cls-2{fill:#9f8d89;}.cls-3{fill:#d3644b;}.cls-4{fill:#3b2e2d;}</style></defs><title>Paper</title><g id="Lager_2" data-name="Lager 2"><g id="Lager_2-2" data-name="Lager 2"><path class="cls-1" d="M0,108V279.79a5.54,5.54,0,0,0,5.43,5.63H215.21a5.54,5.54,0,0,0,5.43-5.63V5.63A5.55,5.55,0,0,0,215.21,0H110.32V102.34a5.54,5.54,0,0,1-5.43,5.63Z"/><path class="cls-2" d="M44.31,75.79H171.36a2.72,2.72,0,0,0,0-5.37h-127a2.72,2.72,0,0,0,0,5.37Z"/><path class="cls-2" d="M171.36,95.67h-127a2.72,2.72,0,0,0,0,5.37H171.36a2.72,2.72,0,0,0,0-5.37Z"/><path class="cls-2" d="M171.36,120.92h-127a2.73,2.73,0,0,0,0,5.38H171.36a2.73,2.73,0,0,0,0-5.38Z"/><path class="cls-2" d="M171.36,146.18h-127a2.72,2.72,0,0,0,0,5.37H171.36a2.72,2.72,0,0,0,0-5.37Z"/><path class="cls-2" d="M171.36,171.43h-127a2.72,2.72,0,0,0,0,5.37H171.36a2.72,2.72,0,0,0,0-5.37Z"/><path class="cls-2" d="M171.36,196.68h-127a2.73,2.73,0,0,0,0,5.38H171.36a2.73,2.73,0,0,0,0-5.38Z"/><path class="cls-2" d="M171.36,221.94h-127a2.72,2.72,0,0,0,0,5.37H171.36a2.72,2.72,0,0,0,0-5.37Z"/><path class="cls-2" d="M171.36,247.19h-127a2.72,2.72,0,0,0,0,5.37H171.36a2.72,2.72,0,0,0,0-5.37Z"/><path class="cls-3" d="M0,108H104.89a5.54,5.54,0,0,0,5.43-5.63V0Z"/><polygon class="cls-4" points="110.31 0 110.32 0 110.32 0.01 110.31 0"/></g></g></svg>