<svg xmlns="http://www.w3.org/2000/svg" viewBox="0 0 247.44 259.44"><defs><style>.cls-1{fill:#846f6a;}.cls-2{fill:#9f8d89;}.cls-3{fill:#675353;}</style></defs><title>Rock</title><g id="Lager_2" data-name="Lager 2"><g id="Lager_2-2" data-name="Lager 2"><path class="cls-1" d="M5.53,228S13,252.58,27.26,259.44H90.17l31.46-62.34L46.71,134.77Z"/><path class="cls-2" d="M236.12,132.87l-63,64.23H121.63L46.71,134.77,69.37,86.89A79.66,79.66,0,0,0,77,52.82V12.38s37.74-32.6,80.07,8C190.18,52.13,223.26,109.4,236.12,132.87Z"/><polygon class="cls-3" points="209.7 259.44 90.17 259.44 121.63 197.1 173.1 197.1 209.7 259.44"/><path class="cls-1" d="M242,222.56a.19.19,0,0,1,0,.08c-5.41,14.2-15.33,27.3-32.26,36.8L173.1,197.1l63-64.23v0a163.16,163.16,0,0,1,11.27,50.32C247.69,195.75,246.49,209.69,242,222.56Z"/><path class="cls-3" d="M5.53,228S-12.2,178.8,15.83,123.33,49.57,35.25,63.29,23.82L77,12.38V50.19a91.33,91.33,0,0,1-8.78,39.07L46.71,134.77Z"/></g></g></svg>