<svg xmlns="http://www.w3.org/2000/svg" viewBox="0 0 292 308.59"><defs><style>.cls-1{fill:#9f8d89;}.cls-2{fill:#d3644b;}.cls-3{fill:#c9bcb0;}.cls-4{fill:#846f6a;}</style></defs><title>Sax</title><g id="Lager_2" data-name="Lager 2"><g id="Lager_2-2" data-name="Lager 2"><path class="cls-1" d="M174.61,165.19c-9.37,9.2-67.51,61.59-76.67,69.79-9.28-8.3-18.72-17.14-28.2-26.46L146.42,137Z"/><path class="cls-1" d="M180.53,159.33q-3,3-5.92,5.86L146.42,137l137-137,.17.16C299.09,15.65,252.94,86.92,180.53,159.33Z"/><path class="cls-1" d="M146.42,137l-27.86,27.86c-1.92-1.88-3.83-3.78-5.75-5.7C40.65,87-5.42,16,9.58.16Z"/><path class="cls-1" d="M118.09,165.19c9.37,9.2,67.51,61.59,76.67,69.79,9.28-8.3,18.72-17.14,28.2-26.46L146.28,137Z"/><path class="cls-2" d="M55.86,195.92a55.87,55.87,0,1,0,55.87,55.87A55.87,55.87,0,0,0,55.86,195.92Zm0,96.71a40.84,40.84,0,1,1,40.85-40.84A40.84,40.84,0,0,1,55.86,292.63Z"/><path class="cls-2" d="M236.13,196.86A55.87,55.87,0,1,0,292,252.73,55.87,55.87,0,0,0,236.13,196.86Zm0,96.71A40.84,40.84,0,1,1,277,252.73,40.85,40.85,0,0,1,236.13,293.57Z"/><circle class="cls-3" cx="146.47" cy="164.94" r="12.21"/><polygon class="cls-4" points="158.67 202.42 186.49 174.51 175.53 164.29 146.47 191.13 158.67 202.42"/></g></g></svg>