<svg xmlns="http://www.w3.org/2000/svg" viewBox="0 0 167.98 231.52"><defs><style>.cls-1{fill:#fefefe;}.cls-2{fill:#dce0e1;}.cls-3{fill:#3b2e2d;}</style></defs><title>Paper2</title><g id="Lager_2" data-name="Lager 2"><g id="Lager_2-2" data-name="Lager 2"><path class="cls-1" d="M0,0V231.52H130.67L168,194.21V0ZM6,107.2a2.47,2.47,0,1,1,2.46-2.46A2.47,2.47,0,0,1,6,107.2Z"/><polygon class="cls-2" points="167.98 194.09 167.98 194.21 130.67 231.52 130.54 231.52 130.54 194.09 167.98 194.09"/><circle class="cls-3" cx="5.99" cy="82.34" r="2.46"/><circle class="cls-3" cx="5.99" cy="75.14" r="2.46"/><circle class="cls-3" cx="5.99" cy="67.18" r="2.46"/><circle class="cls-3" cx="5.99" cy="59.98" r="2.46"/><circle class="cls-3" cx="5.99" cy="52.41" r="2.46"/><circle class="cls-3" cx="5.99" cy="45.21" r="2.46"/><circle class="cls-3" cx="5.99" cy="37.25" r="2.46"/><circle class="cls-3" cx="5.99" cy="30.05" r="2.46"/><circle class="cls-3" cx="5.99" cy="22.47" r="2.46"/><circle class="cls-3" cx="5.99" cy="14.51" r="2.46"/><circle class="cls-3" cx="5.99" cy="7.31" r="2.46"/><circle class="cls-3" cx="5.91" cy="164.53" r="2.46"/><circle class="cls-3" cx="5.99" cy="157.4" r="2.46"/><circle class="cls-3" cx="5.99" cy="149.45" r="2.46"/><circle class="cls-3" cx="5.99" cy="142.25" r="2.46"/><circle class="cls-3" cx="5.99" cy="134.67" r="2.46"/><circle class="cls-3" cx="5.99" cy="127.47" r="2.46"/><circle class="cls-3" cx="5.91" cy="119.7" r="2.46"/><circle class="cls-3" cx="5.99" cy="112.31" r="2.46"/><circle class="cls-3" cx="5.99" cy="96.78" r="2.46"/><circle class="cls-3" cx="5.99" cy="89.58" r="2.46"/><circle class="cls-3" cx="5.99" cy="224.51" r="2.46"/><circle class="cls-3" cx="5.91" cy="216.74" r="2.46"/><circle class="cls-3" cx="5.91" cy="209.85" r="2.46"/><circle class="cls-3" cx="5.91" cy="201.97" r="2.46"/><circle class="cls-3" cx="5.91" cy="194.58" r="2.46"/><circle class="cls-3" cx="5.91" cy="187.19" r="2.46"/><circle class="cls-3" cx="5.91" cy="179.31" r="2.46"/><circle class="cls-3" cx="5.91" cy="171.92" r="2.46"/></g></g></svg>