<svg xmlns="http://www.w3.org/2000/svg" viewBox="0 0 139.03 173.89"><defs><style>.cls-1{fill:#efba6a;}.cls-2{fill:#fad888;}.cls-3{fill:#feecc2;}.cls-4{fill:#3b2e2d;}</style></defs><title>Paper3</title><g id="Lager_2" data-name="Lager 2"><g id="Lager_2-2" data-name="Lager 2"><polygon class="cls-1" points="139.03 158.86 128.79 161.25 120.69 163.15 79.28 172.84 74.81 173.89 27.7 173.89 9.54 96.25 8.87 93.39 8.87 10.74 50.27 1.04 54.74 0 101.85 0 120.02 77.63 120.69 80.5 139.03 158.86"/><polygon class="cls-2" points="129.46 167.57 120.69 168.49 79.28 172.84 69.33 173.89 17.69 173.89 9.54 96.25 8.87 89.88 8.87 5.39 50.27 1.04 60.23 0 111.86 0 120.02 77.63 120.69 84.01 128.79 161.25 129.46 167.57"/><rect class="cls-3" width="111.82" height="173.89"/><circle class="cls-4" cx="7.64" cy="7.14" r="3.2"/><circle class="cls-4" cx="16.99" cy="7.14" r="3.2"/><circle class="cls-4" cx="27.34" cy="7.14" r="3.2"/><circle class="cls-4" cx="36.7" cy="7.14" r="3.2"/><circle class="cls-4" cx="46.55" cy="7.14" r="3.2"/><circle class="cls-4" cx="55.91" cy="7.14" r="3.2"/><circle class="cls-4" cx="66.25" cy="7.14" r="3.2"/><circle class="cls-4" cx="75.61" cy="7.14" r="3.2"/><circle class="cls-4" cx="85.47" cy="7.14" r="3.2"/><circle class="cls-4" cx="95.81" cy="7.14" r="3.2"/><circle class="cls-4" cx="105.17" cy="7.14" r="3.2"/></g></g></svg>