<svg xmlns="http://www.w3.org/2000/svg" viewBox="0 0 167.98 231.52"><defs><style>.cls-1{fill:#fefefe;}.cls-2{fill:#3b2e2d;}</style></defs><title>Paper1</title><g id="Lager_2" data-name="Lager 2"><g id="Lager_2-2" data-name="Lager 2"><polygon class="cls-1" points="0 0 0 231.52 130.54 231.52 130.67 231.52 167.98 231.52 167.98 194.21 167.98 194.09 167.98 0 0 0"/><circle class="cls-2" cx="5.99" cy="82.34" r="2.46"/><circle class="cls-2" cx="5.99" cy="75.14" r="2.46"/><circle class="cls-2" cx="5.99" cy="67.18" r="2.46"/><circle class="cls-2" cx="5.99" cy="59.98" r="2.46"/><circle class="cls-2" cx="5.99" cy="52.41" r="2.46"/><circle class="cls-2" cx="5.99" cy="45.21" r="2.46"/><circle class="cls-2" cx="5.99" cy="37.25" r="2.46"/><circle class="cls-2" cx="5.99" cy="30.05" r="2.46"/><circle class="cls-2" cx="5.99" cy="22.47" r="2.46"/><circle class="cls-2" cx="5.99" cy="14.51" r="2.46"/><circle class="cls-2" cx="5.99" cy="7.31" r="2.46"/><circle class="cls-2" cx="5.91" cy="164.53" r="2.46"/><circle class="cls-2" cx="5.99" cy="157.4" r="2.46"/><circle class="cls-2" cx="5.99" cy="149.45" r="2.46"/><circle class="cls-2" cx="5.99" cy="142.25" r="2.46"/><circle class="cls-2" cx="5.99" cy="134.67" r="2.46"/><circle class="cls-2" cx="5.99" cy="127.47" r="2.46"/><circle class="cls-2" cx="5.91" cy="119.7" r="2.46"/><circle class="cls-2" cx="5.99" cy="112.31" r="2.46"/><circle class="cls-2" cx="5.99" cy="104.73" r="2.46"/><circle class="cls-2" cx="5.99" cy="96.78" r="2.46"/><circle class="cls-2" cx="5.99" cy="89.58" r="2.46"/><circle class="cls-2" cx="5.99" cy="224.51" r="2.46"/><circle class="cls-2" cx="5.91" cy="216.74" r="2.46"/><circle class="cls-2" cx="5.91" cy="209.85" r="2.46"/><circle class="cls-2" cx="5.91" cy="201.97" r="2.46"/><circle class="cls-2" cx="5.91" cy="194.58" r="2.46"/><circle class="cls-2" cx="5.91" cy="187.19" r="2.46"/><circle class="cls-2" cx="5.91" cy="179.31" r="2.46"/><circle class="cls-2" cx="5.91" cy="171.92" r="2.46"/><line class="cls-2" x1="21.18" y1="14.29" x2="148.77" y2="14.29"/><line class="cls-2" x1="21.18" y1="23.64" x2="148.77" y2="23.64"/><line class="cls-2" x1="21.18" y1="32.51" x2="148.77" y2="32.51"/><line class="cls-2" x1="21.18" y1="41.38" x2="148.77" y2="41.38"/><line class="cls-2" x1="21.18" y1="50.25" x2="148.77" y2="50.25"/><line class="cls-2" x1="21.18" y1="59.6" x2="148.77" y2="59.6"/><line class="cls-2" x1="21.18" y1="68.47" x2="148.77" y2="68.47"/><line class="cls-2" x1="21.18" y1="77.34" x2="148.77" y2="77.34"/><line class="cls-2" x1="21.18" y1="86.7" x2="148.77" y2="86.7"/><line class="cls-2" x1="21.18" y1="96.06" x2="148.77" y2="96.06"/><line class="cls-2" x1="21.18" y1="104.92" x2="148.77" y2="104.92"/><line class="cls-2" x1="21.18" y1="113.79" x2="148.77" y2="113.79"/><line class="cls-2" x1="21.18" y1="122.66" x2="148.77" y2="122.66"/><line class="cls-2" x1="21.18" y1="132.02" x2="148.77" y2="132.02"/><line class="cls-2" x1="21.18" y1="140.88" x2="148.77" y2="140.88"/><line class="cls-2" x1="21.18" y1="149.75" x2="148.77" y2="149.75"/><line class="cls-2" x1="21.18" y1="158.62" x2="148.77" y2="158.62"/><line class="cls-2" x1="21.18" y1="167.98" x2="148.77" y2="167.98"/><line class="cls-2" x1="21.18" y1="176.84" x2="148.77" y2="176.84"/><line class="cls-2" x1="21.18" y1="185.71" x2="148.77" y2="185.71"/><line class="cls-2" x1="21.18" y1="194.58" x2="148.77" y2="194.58"/><line class="cls-2" x1="21.18" y1="203.94" x2="148.77" y2="203.94"/><line class="cls-2" x1="21.18" y1="212.8" x2="148.77" y2="212.8"/><line class="cls-2" x1="21.18" y1="221.67" x2="148.77" y2="221.67"/></g></g></svg>