<svg xmlns="http://www.w3.org/2000/svg" xmlns:xlink="http://www.w3.org/1999/xlink" viewBox="0 0 1920 1080"><defs><style>.cls-1{fill:none;}.cls-10,.cls-2{fill:#fefefe;}.cls-11,.cls-3{fill:#3b2e2d;}.cls-4{fill:#642c15;}.cls-5{fill:#84472e;}.cls-6{fill:#efba6a;}.cls-7{fill:#fad888;}.cls-8{fill:#feecc2;}.cls-9{fill:#dce0e1;}.cls-10,.cls-11{stroke-miterlimit:10;stroke:url(#Unnamed_Pattern);}.cls-12{fill:#251f1f;}.cls-13{opacity:0.71;}.cls-14{fill:#846f6a;}.cls-15{fill:#9f8d89;}.cls-16{fill:#675353;}.cls-17{fill:#d3644b;}.cls-18{fill:#c9bcb0;}.cls-19{opacity:0.75;}.cls-20{fill:#d19351;}.cls-21{fill:#1f5261;}.cls-22{fill:#528392;}.cls-23{fill:#62777d;}.cls-24{fill:#2a274b;}.cls-25{fill:#fff;}.cls-26{fill:#972722;}.cls-27{fill:#31563d;}.cls-28{fill:#376b7a;}.cls-29{fill:url(#Namnlös_övertoning_2);}.cls-30{fill:#9dcead;opacity:0.42;}</style><pattern id="Unnamed_Pattern" data-name="Unnamed Pattern" width="438.34" height="604.17" patternUnits="userSpaceOnUse" viewBox="0 0 438.34 604.17"><rect class="cls-1" width="438.34" height="604.17"/><polygon class="cls-2" points="0 0 0 604.17 340.65 604.17 340.98 604.17 438.34 604.17 438.34 506.81 438.34 506.47 438.34 0 0 0"/><circle class="cls-3" cx="15.62" cy="214.87" r="6.43"/><circle class="cls-3" cx="15.62" cy="196.08" r="6.43"/><circle class="cls-3" cx="15.62" cy="175.32" r="6.43"/><circle class="cls-3" cx="15.62" cy="156.53" r="6.43"/><circle class="cls-3" cx="15.62" cy="136.75" r="6.43"/><circle class="cls-3" cx="15.62" cy="117.97" r="6.43"/><circle class="cls-3" cx="15.62" cy="97.2" r="6.43"/><circle class="cls-3" cx="15.62" cy="78.41" r="6.43"/><circle class="cls-3" cx="15.62" cy="58.64" r="6.43"/><circle class="cls-3" cx="15.62" cy="37.87" r="6.43"/><circle class="cls-3" cx="15.62" cy="19.08" r="6.43"/><circle class="cls-3" cx="15.43" cy="429.34" r="6.43"/><circle class="cls-3" cx="15.62" cy="410.75" r="6.43"/><circle class="cls-3" cx="15.62" cy="389.99" r="6.43"/><circle class="cls-3" cx="15.62" cy="371.2" r="6.43"/><circle class="cls-3" cx="15.62" cy="351.43" r="6.43"/><circle class="cls-3" cx="15.62" cy="332.64" r="6.43"/><circle class="cls-3" cx="15.43" cy="312.37" r="6.43"/><circle class="cls-3" cx="15.62" cy="293.09" r="6.43"/><circle class="cls-3" cx="15.62" cy="273.31" r="6.43"/><circle class="cls-3" cx="15.62" cy="252.54" r="6.43"/><circle class="cls-3" cx="15.62" cy="233.76" r="6.43"/><circle class="cls-3" cx="15.62" cy="585.87" r="6.43"/><circle class="cls-3" cx="15.43" cy="565.6" r="6.43"/><circle class="cls-3" cx="15.43" cy="547.61" r="6.43"/><circle class="cls-3" cx="15.43" cy="527.04" r="6.43"/><circle class="cls-3" cx="15.43" cy="507.76" r="6.43"/><circle class="cls-3" cx="15.43" cy="488.48" r="6.43"/><circle class="cls-3" cx="15.43" cy="467.91" r="6.43"/><circle class="cls-3" cx="15.43" cy="448.63" r="6.43"/><line class="cls-3" x1="55.27" y1="37.28" x2="388.21" y2="37.28"/><line class="cls-3" x1="55.27" y1="61.7" x2="388.21" y2="61.7"/><line class="cls-3" x1="55.27" y1="84.84" x2="388.21" y2="84.84"/><line class="cls-3" x1="55.27" y1="107.98" x2="388.21" y2="107.98"/><line class="cls-3" x1="55.27" y1="131.12" x2="388.21" y2="131.12"/><line class="cls-3" x1="55.27" y1="155.54" x2="388.21" y2="155.54"/><line class="cls-3" x1="55.27" y1="178.68" x2="388.21" y2="178.68"/><line class="cls-3" x1="55.27" y1="201.82" x2="388.21" y2="201.82"/><line class="cls-3" x1="55.27" y1="226.24" x2="388.21" y2="226.24"/><line class="cls-3" x1="55.27" y1="250.66" x2="388.21" y2="250.66"/><line class="cls-3" x1="55.27" y1="273.8" x2="388.21" y2="273.8"/><line class="cls-3" x1="55.27" y1="296.94" x2="388.21" y2="296.94"/><line class="cls-3" x1="55.27" y1="320.08" x2="388.21" y2="320.08"/><line class="cls-3" x1="55.27" y1="344.5" x2="388.21" y2="344.5"/><line class="cls-3" x1="55.27" y1="367.64" x2="388.21" y2="367.64"/><line class="cls-3" x1="55.27" y1="390.78" x2="388.21" y2="390.78"/><line class="cls-3" x1="55.27" y1="413.92" x2="388.21" y2="413.92"/><line class="cls-3" x1="55.27" y1="438.34" x2="388.21" y2="438.34"/><line class="cls-3" x1="55.27" y1="461.48" x2="388.21" y2="461.48"/><line class="cls-3" x1="55.27" y1="484.62" x2="388.21" y2="484.62"/><line class="cls-3" x1="55.27" y1="507.76" x2="388.21" y2="507.76"/><line class="cls-3" x1="55.27" y1="532.18" x2="388.21" y2="532.18"/><line class="cls-3" x1="55.27" y1="555.32" x2="388.21" y2="555.32"/><line class="cls-3" x1="55.27" y1="578.46" x2="388.21" y2="578.46"/></pattern><linearGradient id="Namnlös_övertoning_2" x1="1534.29" y1="731.7" x2="1534.29" y2="710.79" gradientUnits="userSpaceOnUse"><stop offset="0" stop-color="#9dcead"/><stop offset="1" stop-color="#251f1f"/></linearGradient></defs><title>GatheringBackground</title><g id="Lager_2" data-name="Lager 2"><g id="Lager_1-2" data-name="Lager 1"><rect class="cls-4" width="1920" height="1080"/><path class="cls-5" d="M672,781a11,11,0,0,1-11,11H0V770H661A11,11,0,0,1,672,781Z"/><path class="cls-5" d="M559,964a11,11,0,0,1-11,11H0V953H548A11,11,0,0,1,559,964Z"/><rect class="cls-5" x="516" y="560" width="350" height="22" rx="11"/><rect class="cls-5" x="776" y="367" width="350" height="22" rx="11"/><rect class="cls-5" x="1109" y="730" width="350" height="22" rx="11"/><path class="cls-5" d="M1920,378v22H1735a11,11,0,0,1,0-22Z"/><path class="cls-5" d="M1920,65V87H1706a11,11,0,0,1,0-22Z"/><path class="cls-5" d="M609,331a11,11,0,0,1-11,11H0V320H598A11,11,0,0,1,609,331Z"/><rect class="cls-5" x="273" y="43" width="699" height="22" rx="11"/><path class="cls-5" d="M1920,213v22H1349a11,11,0,0,1,0-22Z"/><path class="cls-5" d="M1920,882v22H1336a11,11,0,0,1,0-22Z"/><rect class="cls-5" x="1188" y="560" width="699" height="22" rx="11"/><polygon class="cls-6" points="1051.16 1009.93 1014.46 1018.52 985.37 1025.33 836.81 1060.11 820.78 1063.85 651.77 1063.85 586.6 785.33 584.19 775.06 584.19 478.53 732.75 443.75 748.78 440 917.79 440 982.96 718.52 985.37 728.79 1051.16 1009.93"/><polygon class="cls-7" points="1016.84 1041.19 985.37 1044.5 836.81 1060.11 801.11 1063.85 615.85 1063.85 586.6 785.33 584.19 762.44 584.19 459.35 732.75 443.75 768.45 440 953.72 440 982.96 718.52 985.37 741.41 1014.46 1018.52 1016.84 1041.19"/><rect class="cls-8" x="552.38" y="440" width="401.17" height="623.85"/><circle class="cls-3" cx="579.78" cy="465.63" r="11.49"/><circle class="cls-3" cx="613.35" cy="465.63" r="11.49"/><circle class="cls-3" cx="650.47" cy="465.63" r="11.49"/><circle class="cls-3" cx="684.05" cy="465.63" r="11.49"/><circle class="cls-3" cx="719.39" cy="465.63" r="11.49"/><circle class="cls-3" cx="752.97" cy="465.63" r="11.49"/><circle class="cls-3" cx="790.08" cy="465.63" r="11.49"/><circle class="cls-3" cx="823.66" cy="465.63" r="11.49"/><circle class="cls-3" cx="859.01" cy="465.63" r="11.49"/><circle class="cls-3" cx="896.12" cy="465.63" r="11.49"/><circle class="cls-3" cx="929.7" cy="465.63" r="11.49"/><path class="cls-2" d="M1720.3,138.8H1173V447.69l88.2,88.2h459.1ZM1466.89,153a5.83,5.83,0,1,1,5.82,5.82A5.83,5.83,0,0,1,1466.89,153Z"/><polygon class="cls-9" points="1261.5 535.89 1261.2 535.89 1173 447.69 1173 447.39 1261.5 447.39 1261.5 535.89"/><circle class="cls-3" cx="1525.66" cy="152.95" r="5.82"/><circle class="cls-3" cx="1542.68" cy="152.95" r="5.82"/><circle class="cls-3" cx="1561.49" cy="152.95" r="5.82"/><circle class="cls-3" cx="1578.51" cy="152.95" r="5.82"/><circle class="cls-3" cx="1596.42" cy="152.95" r="5.82"/><circle class="cls-3" cx="1613.44" cy="152.95" r="5.82"/><circle class="cls-3" cx="1632.25" cy="152.95" r="5.82"/><circle class="cls-3" cx="1649.27" cy="152.95" r="5.82"/><circle class="cls-3" cx="1667.19" cy="152.95" r="5.82"/><circle class="cls-3" cx="1686" cy="152.95" r="5.82"/><circle class="cls-3" cx="1703.02" cy="152.95" r="5.82"/><circle class="cls-3" cx="1331.37" cy="152.78" r="5.82"/><circle class="cls-3" cx="1348.21" cy="152.95" r="5.82"/><circle class="cls-3" cx="1367.02" cy="152.95" r="5.82"/><circle class="cls-3" cx="1384.04" cy="152.95" r="5.82"/><circle class="cls-3" cx="1401.95" cy="152.95" r="5.82"/><circle class="cls-3" cx="1418.97" cy="152.95" r="5.82"/><circle class="cls-3" cx="1437.34" cy="152.78" r="5.82"/><circle class="cls-3" cx="1454.8" cy="152.95" r="5.82"/><circle class="cls-3" cx="1491.53" cy="152.95" r="5.82"/><circle class="cls-3" cx="1508.55" cy="152.95" r="5.82"/><circle class="cls-3" cx="1189.57" cy="152.95" r="5.82"/><circle class="cls-3" cx="1207.93" cy="152.78" r="5.82"/><circle class="cls-3" cx="1224.24" cy="152.78" r="5.82"/><circle class="cls-3" cx="1242.87" cy="152.78" r="5.82"/><circle class="cls-3" cx="1260.34" cy="152.78" r="5.82"/><circle class="cls-3" cx="1277.8" cy="152.78" r="5.82"/><circle class="cls-3" cx="1296.43" cy="152.78" r="5.82"/><circle class="cls-3" cx="1313.9" cy="152.78" r="5.82"/><polygon class="cls-10" points="43.15 40 43.15 644.17 383.79 644.17 384.13 644.17 481.49 644.17 481.49 546.81 481.49 546.47 481.49 40 43.15 40"/><circle class="cls-11" cx="58.77" cy="254.87" r="6.43"/><circle class="cls-11" cx="58.77" cy="236.08" r="6.43"/><circle class="cls-11" cx="58.77" cy="215.32" r="6.43"/><circle class="cls-11" cx="58.77" cy="196.53" r="6.43"/><circle class="cls-11" cx="58.77" cy="176.75" r="6.43"/><circle class="cls-11" cx="58.77" cy="157.97" r="6.43"/><circle class="cls-11" cx="58.77" cy="137.2" r="6.43"/><circle class="cls-11" cx="58.77" cy="118.41" r="6.43"/><circle class="cls-11" cx="58.77" cy="98.64" r="6.43"/><circle class="cls-11" cx="58.77" cy="77.87" r="6.43"/><circle class="cls-11" cx="58.77" cy="59.08" r="6.43"/><circle class="cls-11" cx="58.57" cy="469.34" r="6.43"/><circle class="cls-11" cx="58.77" cy="450.75" r="6.43"/><circle class="cls-11" cx="58.77" cy="429.99" r="6.43"/><circle class="cls-11" cx="58.77" cy="411.2" r="6.43"/><circle class="cls-11" cx="58.77" cy="391.43" r="6.43"/><circle class="cls-11" cx="58.77" cy="372.64" r="6.43"/><circle class="cls-11" cx="58.57" cy="352.37" r="6.43"/><circle class="cls-11" cx="58.77" cy="333.09" r="6.43"/><circle class="cls-11" cx="58.77" cy="313.31" r="6.43"/><circle class="cls-11" cx="58.77" cy="292.54" r="6.43"/><circle class="cls-11" cx="58.77" cy="273.76" r="6.43"/><circle class="cls-11" cx="58.77" cy="625.87" r="6.43"/><circle class="cls-11" cx="58.57" cy="605.6" r="6.43"/><circle class="cls-11" cx="58.57" cy="587.61" r="6.43"/><circle class="cls-11" cx="58.57" cy="567.04" r="6.43"/><circle class="cls-11" cx="58.57" cy="547.76" r="6.43"/><circle class="cls-11" cx="58.57" cy="528.48" r="6.43"/><circle class="cls-11" cx="58.57" cy="507.91" r="6.43"/><circle class="cls-11" cx="58.57" cy="488.63" r="6.43"/><line class="cls-11" x1="98.42" y1="77.28" x2="431.36" y2="77.28"/><line class="cls-11" x1="98.42" y1="101.7" x2="431.36" y2="101.7"/><line class="cls-11" x1="98.42" y1="124.84" x2="431.36" y2="124.84"/><line class="cls-11" x1="98.42" y1="147.98" x2="431.36" y2="147.98"/><line class="cls-11" x1="98.42" y1="171.12" x2="431.36" y2="171.12"/><line class="cls-11" x1="98.42" y1="195.54" x2="431.36" y2="195.54"/><line class="cls-11" x1="98.42" y1="218.68" x2="431.36" y2="218.68"/><line class="cls-11" x1="98.42" y1="241.82" x2="431.36" y2="241.82"/><line class="cls-11" x1="98.42" y1="266.24" x2="431.36" y2="266.24"/><line class="cls-11" x1="98.42" y1="290.66" x2="431.36" y2="290.66"/><line class="cls-11" x1="98.42" y1="313.8" x2="431.36" y2="313.8"/><line class="cls-11" x1="98.42" y1="336.94" x2="431.36" y2="336.94"/><line class="cls-11" x1="98.42" y1="360.08" x2="431.36" y2="360.08"/><line class="cls-11" x1="98.42" y1="384.5" x2="431.36" y2="384.5"/><line class="cls-11" x1="98.42" y1="407.64" x2="431.36" y2="407.64"/><line class="cls-11" x1="98.42" y1="430.78" x2="431.36" y2="430.78"/><line class="cls-11" x1="98.42" y1="453.92" x2="431.36" y2="453.92"/><line class="cls-11" x1="98.42" y1="478.34" x2="431.36" y2="478.34"/><line class="cls-11" x1="98.42" y1="501.48" x2="431.36" y2="501.48"/><line class="cls-11" x1="98.42" y1="524.62" x2="431.36" y2="524.62"/><line class="cls-11" x1="98.42" y1="547.76" x2="431.36" y2="547.76"/><line class="cls-11" x1="98.42" y1="572.18" x2="431.36" y2="572.18"/><line class="cls-11" x1="98.42" y1="595.32" x2="431.36" y2="595.32"/><line class="cls-11" x1="98.42" y1="618.46" x2="431.36" y2="618.46"/><rect class="cls-12" x="1283" y="662" width="345" height="194" rx="12"/><g class="cls-13"><path class="cls-14" d="M595.82,1035.21s2.23,7.37,6.52,9.43h18.87l9.44-18.7-22.47-18.7Z"/><path class="cls-15" d="M665,1006.68l-18.9,19.26H630.65l-22.47-18.7L615,992.88a23.89,23.89,0,0,0,2.3-10.22V970.53s11.32-9.77,24,2.4C651.21,982.46,661.13,999.63,665,1006.68Z"/><polygon class="cls-16" points="657.07 1044.64 621.21 1044.64 630.65 1025.94 646.09 1025.94 657.07 1044.64"/><path class="cls-14" d="M666.75,1033.58v0a21,21,0,0,1-9.67,11l-11-18.7,18.9-19.26h0a48.83,48.83,0,0,1,3.38,15.09A33.74,33.74,0,0,1,666.75,1033.58Z"/><path class="cls-16" d="M595.82,1035.21a42.65,42.65,0,0,1,3.09-31.4c8.41-16.64,10.12-26.42,14.24-29.85l4.12-3.43v11.34a27.36,27.36,0,0,1-2.64,11.73l-6.45,13.64Z"/></g><g class="cls-13"><path class="cls-9" d="M819.45,985.77v57.17a1.85,1.85,0,0,0,1.81,1.88h69.81a1.86,1.86,0,0,0,1.81-1.88V951.71a1.86,1.86,0,0,0-1.81-1.88H856.16v34.06a1.85,1.85,0,0,1-1.8,1.88Z"/><path class="cls-15" d="M834.2,975.06h42.28a.84.84,0,0,0,.75-.9.83.83,0,0,0-.75-.89H834.2a.83.83,0,0,0-.75.89A.84.84,0,0,0,834.2,975.06Z"/><path class="cls-15" d="M876.48,981.67H834.2a.91.91,0,0,0,0,1.79h42.28a.91.91,0,0,0,0-1.79Z"/><path class="cls-15" d="M876.48,990.08H834.2a.9.9,0,0,0,0,1.78h42.28a.9.9,0,0,0,0-1.78Z"/><path class="cls-15" d="M876.48,998.48H834.2a.91.91,0,0,0,0,1.79h42.28a.91.91,0,0,0,0-1.79Z"/><path class="cls-15" d="M876.48,1006.88H834.2a.84.84,0,0,0-.75.9.83.83,0,0,0,.75.89h42.28a.83.83,0,0,0,.75-.89A.84.84,0,0,0,876.48,1006.88Z"/><path class="cls-15" d="M876.48,1015.29H834.2a.83.83,0,0,0-.75.89.84.84,0,0,0,.75.9h42.28a.84.84,0,0,0,.75-.9A.83.83,0,0,0,876.48,1015.29Z"/><path class="cls-15" d="M876.48,1023.69H834.2a.91.91,0,0,0,0,1.79h42.28a.91.91,0,0,0,0-1.79Z"/><path class="cls-15" d="M876.48,1032.09H834.2a.84.84,0,0,0-.75.9.83.83,0,0,0,.75.89h42.28a.83.83,0,0,0,.75-.89A.84.84,0,0,0,876.48,1032.09Z"/><path class="cls-17" d="M819.45,985.77h34.91a1.85,1.85,0,0,0,1.8-1.88v-34Z"/><polygon class="cls-3" points="856.16 949.84 856.16 949.84 856.16 949.84 856.16 949.84"/></g><g class="cls-13"><path class="cls-15" d="M747.37,1010c-3,3-21.82,19.91-24.79,22.56-3-2.68-6.05-5.54-9.11-8.55l24.79-23.12Z"/><path class="cls-15" d="M749.28,1008.14l-1.91,1.9-9.11-9.11,44.29-44.29s0,0,.05.05C787.61,961.7,772.69,984.74,749.28,1008.14Z"/><path class="cls-15" d="M738.26,1000.93l-9,9c-.62-.6-1.24-1.22-1.86-1.84-23.33-23.33-38.22-46.28-33.37-51.4Z"/><path class="cls-15" d="M729.1,1010c3,3,21.82,19.91,24.78,22.56,3-2.68,6-5.54,9.12-8.55l-24.79-23.12Z"/><path class="cls-17" d="M709,1020A18.06,18.06,0,1,0,727,1038,18.07,18.07,0,0,0,709,1020Zm0,31.27A13.21,13.21,0,1,1,722.19,1038,13.2,13.2,0,0,1,709,1051.24Z"/><path class="cls-17" d="M767.26,1020.28a18.06,18.06,0,1,0,18.06,18.06A18.05,18.05,0,0,0,767.26,1020.28Zm0,31.26a13.21,13.21,0,1,1,13.2-13.2A13.21,13.21,0,0,1,767.26,1051.54Z"/><circle class="cls-18" cx="738.27" cy="1009.96" r="3.95"/><polygon class="cls-14" points="742.22 1022.08 751.21 1013.05 747.67 1009.75 738.27 1018.43 742.22 1022.08"/></g><g class="cls-19"><ellipse class="cls-20" cx="1342.82" cy="486.4" rx="29.62" ry="28.4"/><ellipse class="cls-6" cx="1340.44" cy="486.4" rx="27.24" ry="28.4"/><path class="cls-3" d="M1333.78,478.21a5,5,0,0,1-.41,2,2.57,2.57,0,0,0-4.95,0,5,5,0,0,1-.41-2c0-2.15,1.29-3.89,2.89-3.89S1333.78,476.06,1333.78,478.21Z"/><path class="cls-3" d="M1357.64,478.21a5,5,0,0,1-.42,2,2.56,2.56,0,0,0-4.94,0,4.81,4.81,0,0,1-.42-2c0-2.15,1.29-3.89,2.89-3.89S1357.64,476.06,1357.64,478.21Z"/><path class="cls-3" d="M1358.64,497.13a24.36,24.36,0,0,1-31.88,0c-1.68-1.46-1.93-3.68-.78-4.56h0c1.15-.89,3-.51,4.23.58a19.09,19.09,0,0,0,25,0c1.26-1.09,3.09-1.47,4.24-.58h0C1360.56,493.45,1360.32,495.67,1358.64,497.13Z"/><ellipse class="cls-20" cx="1618.48" cy="489.53" rx="29.42" ry="28.2"/><ellipse class="cls-6" cx="1616.24" cy="489.53" rx="27.17" ry="28.2"/><rect class="cls-3" x="1596.79" y="477.73" width="16.36" height="3.49" rx="1.75" transform="translate(809.13 -994.45) rotate(45)"/><rect class="cls-3" x="1623.81" y="478.04" width="17.24" height="3.49" rx="1.75" transform="translate(3125.99 -335.25) rotate(135)"/><ellipse class="cls-3" cx="1605.89" cy="484.89" rx="2.87" ry="3.86"/><ellipse class="cls-3" cx="1631.07" cy="484.89" rx="2.87" ry="3.86"/><path class="cls-3" d="M1626.58,503a10.21,10.21,0,0,0-16.45,0c-.91,1.23-2.25,2.32-3.38,2h0c-1.12-.31-1.41-2.62-.06-4.51a14.48,14.48,0,0,1,23.33,0c1.35,1.89,1.06,4.2-.06,4.51h0C1628.83,505.33,1627.49,504.24,1626.58,503Z"/><ellipse class="cls-20" cx="1409.45" cy="489.4" rx="29.83" ry="28.6"/><ellipse class="cls-6" cx="1406.92" cy="489.4" rx="27.3" ry="28.6"/><path class="cls-3" d="M1399.84,482.17a4.86,4.86,0,0,1-.42,2,2.58,2.58,0,0,0-5,0,4.86,4.86,0,0,1-.42-2c0-2.17,1.31-3.92,2.91-3.92S1399.84,480,1399.84,482.17Z"/><path class="cls-3" d="M1424.61,481.91a5.07,5.07,0,0,1-.41,2,2.58,2.58,0,0,0-5,0,4.91,4.91,0,0,1-.42-2c0-2.16,1.3-3.92,2.91-3.92S1424.61,479.75,1424.61,481.91Z"/><path class="cls-3" d="M1424.22,494.17a2.19,2.19,0,0,1,2.17,2.59c-1.4,7.15-8.45,12.58-16.94,12.58s-15.55-5.43-17-12.58a2.19,2.19,0,0,1,2.17-2.59Z"/><ellipse class="cls-20" cx="1481.02" cy="488.56" rx="29.62" ry="28.4"/><ellipse class="cls-6" cx="1478.64" cy="488.56" rx="27.24" ry="28.4"/><rect class="cls-3" x="1460.28" y="475.49" width="17.36" height="3.51" rx="1.76" transform="translate(3004.44 310.2) rotate(155.79)"/><ellipse class="cls-3" cx="1470.1" cy="481.12" rx="2.89" ry="3.89"/><ellipse class="cls-3" cx="1493.7" cy="480.62" rx="2.89" ry="3.89"/><path class="cls-3" d="M1489.18,504.39a10.28,10.28,0,0,0-16.57,0c-.91,1.24-2.26,2.34-3.4,2h0c-1.13-.31-1.42-2.63-.06-4.54a14.58,14.58,0,0,1,23.5,0c1.36,1.91,1.06,4.23-.07,4.54h0C1491.45,506.73,1490.09,505.63,1489.18,504.39Z"/><rect class="cls-3" x="1485.13" y="475.49" width="17.36" height="3.51" rx="1.76" transform="translate(327.04 -570.55) rotate(24.21)"/><ellipse class="cls-21" cx="1495.83" cy="491.32" rx="2.76" ry="5.25"/><ellipse class="cls-22" cx="1495.83" cy="490.94" rx="2.76" ry="4.87"/><ellipse class="cls-20" cx="1550.55" cy="488.35" rx="29.62" ry="28.39"/><ellipse class="cls-6" cx="1548.16" cy="488.35" rx="27.23" ry="28.39"/><ellipse class="cls-3" cx="1540.38" cy="481.92" rx="2.89" ry="3.89"/><ellipse class="cls-3" cx="1561.72" cy="481.92" rx="2.89" ry="3.89"/><rect class="cls-3" x="1536.24" y="494.09" width="29.37" height="5.27" rx="2.64"/></g><rect class="cls-23" x="1283.44" y="662" width="344.89" height="112.56"/><rect class="cls-24" x="1283.44" y="765.37" width="344.89" height="90.63"/><path class="cls-5" d="M1483.65,770.52h-.24a1.38,1.38,0,0,1-1.38-1.39v-30h0l.86-1.24a.67.67,0,0,0-.55-1h-25.19a.66.66,0,0,0-.54,1l.86,1.24h0v30a1.39,1.39,0,0,1-1.39,1.39h-.23a1.4,1.4,0,0,0-1.4,1.4h0a1.4,1.4,0,0,0,1.1,1.37v6.12a1.65,1.65,0,0,0,1.65,1.65h25.23a1.65,1.65,0,0,0,1.65-1.65v-6.14a1.4,1.4,0,0,0,1-1.35h0A1.4,1.4,0,0,0,1483.65,770.52Z"/><path class="cls-15" d="M1482.6,728.06h0a.33.33,0,0,1,.12.59l-3.57,2.92h0l-.9,4.17a.32.32,0,0,1-.38.26l-.18,0a.31.31,0,0,1-.23-.39l.88-4.05a.32.32,0,0,1,.12-.2l3.9-3.2A.31.31,0,0,1,1482.6,728.06Z"/><polygon class="cls-4" points="1482.63 738.24 1456.81 738.24 1456.08 737.13 1483.35 737.13 1482.63 738.24"/><path class="cls-5" d="M1455.07,734.48h29.36a1,1,0,0,1,1,1v0a2,2,0,0,1-2,2h-27.24a2,2,0,0,1-2-2v0a1,1,0,0,1,1-1Z"/><rect class="cls-4" x="1455.49" y="773.25" width="28.52" height="2.65"/><rect class="cls-4" x="1460.14" y="740.6" width="19.16" height="28.96" rx="0.65"/><rect class="cls-5" x="1463.23" y="743.91" width="12.97" height="22.33" rx="6.49"/><path class="cls-3" d="M1481.2,731.1h0c-.22-.11-.25-.51-.06-.9l2.54-5.27c.21-.44.61-.7.86-.57l.5.28c.24.13.24.6,0,1l-3,5C1481.76,731,1481.42,731.22,1481.2,731.1Z"/><circle class="cls-14" cx="1485.08" cy="723.95" r="1.53"/><path class="cls-25" d="M1485.46,709.69l-1-4.46a11.37,11.37,0,0,1-.29-2.54V679.77a1.69,1.69,0,0,0-1.57-1.78h-73.39a1.68,1.68,0,0,0-1.56,1.78v27a1.69,1.69,0,0,0,1.56,1.79h69.56a7.72,7.72,0,0,1,2.23.33l4.09,1.25C1485.29,710.25,1485.53,710,1485.46,709.69Z"/><path class="cls-14" d="M1424.32,699.2s.29.94.84,1.2h2.41l1.21-2.39-2.88-2.39Z"/><path class="cls-15" d="M1433.17,695.55l-2.42,2.46h-2l-2.88-2.39.87-1.84a2.92,2.92,0,0,0,.3-1.3v-1.55a2.22,2.22,0,0,1,3.07.3A20.28,20.28,0,0,1,1433.17,695.55Z"/><polygon class="cls-16" points="1432.16 700.4 1427.57 700.4 1428.78 698.01 1430.75 698.01 1432.16 700.4"/><path class="cls-14" d="M1433.4,699h0a2.66,2.66,0,0,1-1.24,1.41l-1.41-2.39,2.42-2.46h0a6.33,6.33,0,0,1,.43,1.93A4.17,4.17,0,0,1,1433.4,699Z"/><path class="cls-16" d="M1424.32,699.2a5.45,5.45,0,0,1,.4-4c1.07-2.13,1.29-3.38,1.82-3.82l.53-.43v1.45a3.57,3.57,0,0,1-.34,1.5l-.83,1.74Z"/><path class="cls-9" d="M1438.87,692.23v7.32a.23.23,0,0,0,.23.24H1448a.24.24,0,0,0,.23-.24V687.88a.24.24,0,0,0-.23-.24h-4.47V692a.23.23,0,0,1-.23.24Z"/><path class="cls-15" d="M1440.75,690.86h5.41a.11.11,0,0,0,.1-.11.12.12,0,0,0-.1-.12h-5.41s-.09.06-.09.12A.1.1,0,0,0,1440.75,690.86Z"/><path class="cls-15" d="M1446.16,691.71h-5.41a.1.1,0,0,0-.09.11c0,.07,0,.12.09.12h5.41a.11.11,0,0,0,.1-.12A.11.11,0,0,0,1446.16,691.71Z"/><path class="cls-15" d="M1446.16,692.78h-5.41s-.09.06-.09.12a.1.1,0,0,0,.09.11h5.41a.11.11,0,0,0,.1-.11A.12.12,0,0,0,1446.16,692.78Z"/><path class="cls-15" d="M1446.16,693.86h-5.41a.1.1,0,0,0-.09.11c0,.07,0,.12.09.12h5.41a.11.11,0,0,0,.1-.12A.11.11,0,0,0,1446.16,693.86Z"/><path class="cls-15" d="M1446.16,694.93h-5.41s-.09.06-.09.12a.1.1,0,0,0,.09.11h5.41a.11.11,0,0,0,.1-.11A.12.12,0,0,0,1446.16,694.93Z"/><path class="cls-15" d="M1446.16,696h-5.41a.1.1,0,0,0-.09.11c0,.07,0,.12.09.12h5.41a.11.11,0,0,0,.1-.12A.11.11,0,0,0,1446.16,696Z"/><path class="cls-15" d="M1446.16,697.08h-5.41s-.09.06-.09.12a.1.1,0,0,0,.09.11h5.41a.11.11,0,0,0,.1-.11A.12.12,0,0,0,1446.16,697.08Z"/><path class="cls-15" d="M1446.16,698.16h-5.41a.1.1,0,0,0-.09.11c0,.07,0,.12.09.12h5.41a.11.11,0,0,0,.1-.12A.11.11,0,0,0,1446.16,698.16Z"/><path class="cls-17" d="M1438.87,692.23h4.46a.23.23,0,0,0,.23-.24v-4.35Z"/><polygon class="cls-3" points="1443.56 687.64 1443.56 687.64 1443.56 687.64 1443.56 687.64"/><path class="cls-15" d="M1460.72,694.57c-.39.38-2.79,2.55-3.17,2.89-.38-.35-.78-.71-1.17-1.1l3.17-3Z"/><path class="cls-15" d="M1461,694.33l-.24.24-1.17-1.16,5.67-5.67h0C1465.87,688.39,1464,691.34,1461,694.33Z"/><path class="cls-15" d="M1459.55,693.41l-1.15,1.15-.24-.24c-3-3-4.89-5.92-4.27-6.57Z"/><path class="cls-15" d="M1458.38,694.57c.39.38,2.79,2.55,3.17,2.89.39-.35.78-.71,1.17-1.1l-3.17-3Z"/><path class="cls-17" d="M1455.81,695.84a2.31,2.31,0,1,0,2.31,2.31A2.31,2.31,0,0,0,1455.81,695.84Zm0,4a1.69,1.69,0,1,1,1.69-1.69A1.69,1.69,0,0,1,1455.81,699.84Z"/><path class="cls-17" d="M1463.26,695.88a2.31,2.31,0,1,0,2.31,2.31A2.32,2.32,0,0,0,1463.26,695.88Zm0,4a1.69,1.69,0,1,1,1.69-1.69A1.69,1.69,0,0,1,1463.26,699.88Z"/><circle class="cls-18" cx="1459.56" cy="694.56" r="0.5"/><polygon class="cls-14" points="1460.06 696.11 1461.21 694.96 1460.76 694.53 1459.56 695.64 1460.06 696.11"/><path class="cls-12" d="M1359.56,825h.07l-.07-10.9a.62.62,0,0,0,0-.13,1.45,1.45,0,0,0,0-.36s-1.68-12.07-1.9-13.67a1.94,1.94,0,0,0-2.42-1.1,6.31,6.31,0,0,0-1.59-.82,14.17,14.17,0,0,1-.23-1.78,6.15,6.15,0,0,0,.23-.66,7.37,7.37,0,0,0,1.73-3.13,28.68,28.68,0,0,0,.72-7.79,6,6,0,0,0-5.27-5.25l-.29,0a6.09,6.09,0,0,0-7,5.36,28.53,28.53,0,0,0,.82,7.78,7.59,7.59,0,0,0,1.61,2.93V798l.07,0a22.7,22.7,0,0,0-2.35.66l-.22.08a1.88,1.88,0,0,0-2,1.25L1340,814a2,2,0,0,0,.06.74V825.1h0a5.46,5.46,0,0,0,1,6.13c.52.43,1,.15.87-.16,0,0,.72.52,1-.08a.66.66,0,0,0,.91-.12s0,.16.4.13v19.12a5.16,5.16,0,0,0-1.18,3.44c0,.2,0,.39,0,.59h6.07a5.83,5.83,0,0,0,0-.59,5.68,5.68,0,0,0-.42-2.2V827.19a25,25,0,0,0,2.87,0v23.37a5.46,5.46,0,0,0-.84,3,5.83,5.83,0,0,0,0,.59h6.07a5.83,5.83,0,0,0,0-.59,5.59,5.59,0,0,0-.77-2.89V831a.63.63,0,0,0,.73,0c.25.6,1,.08,1,.08-.09.3.36.58.88.15a9.26,9.26,0,0,0,1.45-3.12A9.14,9.14,0,0,0,1359.56,825Zm-15.42,4Z"/><path class="cls-12" d="M1382.34,825h.07l-.07-10.9s0-.08,0-.13a2.17,2.17,0,0,0,0-.36L1380.42,800a2,2,0,0,0-2.43-1.1,6.25,6.25,0,0,0-1.58-.82,15.68,15.68,0,0,1-.24-1.78,4.53,4.53,0,0,0,.23-.66,7.28,7.28,0,0,0,1.74-3.13,28.68,28.68,0,0,0,.72-7.79,6,6,0,0,0-5.28-5.25l-.28,0a6.1,6.1,0,0,0-7,5.36,28.56,28.56,0,0,0,.83,7.78,7.46,7.46,0,0,0,1.61,2.93V798l.07,0a22.29,22.29,0,0,0-2.36.66l-.22.08a1.86,1.86,0,0,0-2,1.25c-.17,1.63-1.47,14-1.47,14a2.25,2.25,0,0,0,.06.74V825.1h0a9.09,9.09,0,0,0-.49,3,9.27,9.27,0,0,0,1.46,3.12c.52.43,1,.15.88-.16,0,0,.72.52,1-.08a.66.66,0,0,0,.91-.12s0,.16.41.13v19.12a5.16,5.16,0,0,0-1.19,3.44,5.83,5.83,0,0,0,0,.59h6.07a5.94,5.94,0,0,0-.39-2.79V827.19a25,25,0,0,0,2.87,0v23.37a5.46,5.46,0,0,0-.84,3,5.83,5.83,0,0,0,0,.59h6.06a5.83,5.83,0,0,0,0-.59,5.5,5.5,0,0,0-.77-2.89V831a.65.65,0,0,0,.74,0c.24.6,1,.08,1,.08-.09.3.36.58.88.15a9.25,9.25,0,0,0,1.44-3.12A9.12,9.12,0,0,0,1382.34,825Zm-15.42,4Z"/><path class="cls-12" d="M1406.4,817.41h.07l-.07-10.89v-.14a2.3,2.3,0,0,0,0-.36s-1.68-12.07-1.9-13.67a1.94,1.94,0,0,0-2.42-1.1,6.14,6.14,0,0,0-1.59-.82,14.17,14.17,0,0,1-.23-1.78,4.53,4.53,0,0,0,.23-.66,7.37,7.37,0,0,0,1.73-3.13,28.26,28.26,0,0,0,.72-7.79,5.94,5.94,0,0,0-5.27-5.24l-.29,0a6.1,6.1,0,0,0-7,5.36,28.53,28.53,0,0,0,.82,7.78,7.48,7.48,0,0,0,1.62,2.93v2.54l.06,0a22.7,22.7,0,0,0-2.35.66l-.22.09a1.88,1.88,0,0,0-2,1.24l-1.46,14a2.08,2.08,0,0,0,.06.75v10.32h0a9.36,9.36,0,0,0-.5,3,9.48,9.48,0,0,0,1.47,3.12c.52.43,1,.15.87-.16,0,0,.72.52,1-.08a.65.65,0,0,0,.91-.12s0,.16.41.13v19.12a5.11,5.11,0,0,0-1.19,3.44,5.68,5.68,0,0,0,0,.59h6.06a5.94,5.94,0,0,0-.39-2.79V819.56a22.9,22.9,0,0,0,2.87,0v23.38a5.43,5.43,0,0,0-.84,3,5.68,5.68,0,0,0,0,.59h6.07a5.68,5.68,0,0,0,0-.59,5.44,5.44,0,0,0-.77-2.88V823.33a.63.63,0,0,0,.73,0c.25.6,1,.08,1,.08-.09.31.36.58.88.15a9.26,9.26,0,0,0,1.45-3.12A9.14,9.14,0,0,0,1406.4,817.41Zm-15.42,4h0Z"/><path class="cls-12" d="M1428.75,825h.07l-.07-10.9s0-.08,0-.13a2.17,2.17,0,0,0,0-.36s-1.68-12.07-1.9-13.67a2,2,0,0,0-2.42-1.1,6.31,6.31,0,0,0-1.59-.82,14.17,14.17,0,0,1-.23-1.78,6.15,6.15,0,0,0,.23-.66,7.37,7.37,0,0,0,1.73-3.13,28.68,28.68,0,0,0,.72-7.79,6,6,0,0,0-5.28-5.25l-.28,0a6.1,6.1,0,0,0-7,5.36,29,29,0,0,0,.83,7.78,7.46,7.46,0,0,0,1.61,2.93V798l.07,0a22.29,22.29,0,0,0-2.36.66l-.21.08a1.87,1.87,0,0,0-2.05,1.25l-1.46,14a1.82,1.82,0,0,0,.06.74l0,10.33h0a5.5,5.5,0,0,0,1,6.13c.52.43,1,.15.88-.16,0,0,.72.52,1-.08a.67.67,0,0,0,.92-.12s0,.16.4.13v19.12a5.16,5.16,0,0,0-1.19,3.44,5.83,5.83,0,0,0,0,.59h6.07a5.94,5.94,0,0,0-.39-2.79V827.19a25,25,0,0,0,2.87,0v23.37a5.46,5.46,0,0,0-.84,3,5.83,5.83,0,0,0,0,.59H1426a5.83,5.83,0,0,0,0-.59,5.5,5.5,0,0,0-.77-2.89V831a.65.65,0,0,0,.74,0c.24.6,1,.08,1,.08-.09.3.36.58.88.15a9.25,9.25,0,0,0,1.44-3.12A8.87,8.87,0,0,0,1428.75,825Zm-15.42,4Z"/><path class="cls-12" d="M1451.53,820.85h.06l-.06-10.9a.53.53,0,0,1,0-.13,2.17,2.17,0,0,0,0-.36l-1.89-13.67a2,2,0,0,0-2.43-1.1,6.14,6.14,0,0,0-1.59-.82c0-.29-.16-.93-.23-1.78a4.53,4.53,0,0,0,.23-.66,7.28,7.28,0,0,0,1.74-3.13,28.26,28.26,0,0,0,.71-7.79,6,6,0,0,0-5.27-5.25l-.28,0a6.1,6.1,0,0,0-7,5.36,28.18,28.18,0,0,0,.83,7.78,7.46,7.46,0,0,0,1.61,2.93v2.54l.06,0a22.7,22.7,0,0,0-2.35.66l-.22.08a1.86,1.86,0,0,0-2,1.25c-.17,1.63-1.47,14-1.47,14a2,2,0,0,0,.06.74v10.33h0a9.09,9.09,0,0,0-.49,3A9.27,9.27,0,0,0,1433,827c.52.43,1,.15.88-.16,0,0,.71.52,1-.08a.66.66,0,0,0,.91-.12s0,.16.41.13v19.12a5.16,5.16,0,0,0-1.19,3.44,5.83,5.83,0,0,0,0,.59H1441a5.83,5.83,0,0,0,0-.59,5.68,5.68,0,0,0-.42-2.2V823a25,25,0,0,0,2.87,0v23.37a5.46,5.46,0,0,0-.84,3,5.83,5.83,0,0,0,0,.59h6.07a5.83,5.83,0,0,0,0-.59,5.5,5.5,0,0,0-.77-2.89V826.77a.63.63,0,0,0,.73,0c.25.6,1,.08,1,.08-.1.3.36.58.87.15a9.26,9.26,0,0,0,1.45-3.12A9.39,9.39,0,0,0,1451.53,820.85Zm-15.42,4Z"/><path class="cls-12" d="M1475.59,825h.07l-.07-10.9a.62.62,0,0,0,0-.13,2.17,2.17,0,0,0,0-.36s-1.68-12.07-1.9-13.67a1.94,1.94,0,0,0-2.42-1.1,6.31,6.31,0,0,0-1.59-.82,14.17,14.17,0,0,1-.23-1.78,6.15,6.15,0,0,0,.23-.66,7.37,7.37,0,0,0,1.73-3.13,28.68,28.68,0,0,0,.72-7.79,6,6,0,0,0-5.28-5.25l-.28,0a6.1,6.1,0,0,0-7,5.36,29,29,0,0,0,.83,7.78,7.59,7.59,0,0,0,1.61,2.93V798l.07,0a23,23,0,0,0-2.36.66l-.21.08a1.87,1.87,0,0,0-2,1.25L1456,814a1.82,1.82,0,0,0,.06.74l0,10.33h0a9.1,9.1,0,0,0-.5,3,9.29,9.29,0,0,0,1.47,3.12c.51.43,1,.15.87-.16,0,0,.72.52,1-.08a.67.67,0,0,0,.92-.12s0,.16.4.13v19.12a5.16,5.16,0,0,0-1.19,3.44,5.83,5.83,0,0,0,0,.59h6.07a5.83,5.83,0,0,0,0-.59,5.68,5.68,0,0,0-.42-2.2V827.19a25,25,0,0,0,2.87,0v23.37a5.46,5.46,0,0,0-.84,3,5.83,5.83,0,0,0,0,.59h6.07c0-.2,0-.39,0-.59a5.5,5.5,0,0,0-.77-2.89V831a.65.65,0,0,0,.74,0c.25.6,1,.08,1,.08-.09.3.36.58.88.15a9.26,9.26,0,0,0,1.45-3.12A9.14,9.14,0,0,0,1475.59,825Zm-15.42,4Z"/><path class="cls-12" d="M1497.94,817.41h.06l-.06-10.89s0-.09,0-.14a2.3,2.3,0,0,0,0-.36L1496,792.35a2,2,0,0,0-2.43-1.1,6.14,6.14,0,0,0-1.59-.82c0-.29-.16-.93-.23-1.78a4.53,4.53,0,0,0,.23-.66,7.28,7.28,0,0,0,1.74-3.13,28.65,28.65,0,0,0,.72-7.79,6,6,0,0,0-5.28-5.24l-.28,0a6.1,6.1,0,0,0-7,5.36,28.18,28.18,0,0,0,.83,7.78,7.46,7.46,0,0,0,1.61,2.93v2.54l.06,0a22.7,22.7,0,0,0-2.35.66l-.22.09a1.86,1.86,0,0,0-2,1.24c-.17,1.63-1.47,14-1.47,14a2.33,2.33,0,0,0,.06.75v10.32h0a9.09,9.09,0,0,0-.49,3,9.27,9.27,0,0,0,1.46,3.12c.52.43,1,.15.88-.16,0,0,.72.52,1-.08a.65.65,0,0,0,.91-.12s0,.16.41.13v19.12a5.16,5.16,0,0,0-1.19,3.44,5.68,5.68,0,0,0,0,.59h6.07a6.39,6.39,0,0,0-.4-2.79V819.56a23.06,23.06,0,0,0,2.88,0v23.38a5.43,5.43,0,0,0-.84,3,5.68,5.68,0,0,0,0,.59h6.06a5.68,5.68,0,0,0,0-.59,5.44,5.44,0,0,0-.77-2.88V823.33a.63.63,0,0,0,.73,0c.25.6,1,.08,1,.08-.1.31.36.58.87.15a9.26,9.26,0,0,0,1.45-3.12A9.39,9.39,0,0,0,1497.94,817.41Zm-15.42,4h0Z"/><path class="cls-12" d="M1520.71,825h.07l-.07-10.9V814a2.17,2.17,0,0,0,0-.36s-1.68-12.07-1.9-13.67a1.94,1.94,0,0,0-2.42-1.1,6.31,6.31,0,0,0-1.59-.82,14.17,14.17,0,0,1-.23-1.78,4.53,4.53,0,0,0,.23-.66,7.37,7.37,0,0,0,1.73-3.13,28.29,28.29,0,0,0,.72-7.79,6,6,0,0,0-5.27-5.25l-.29,0a6.1,6.1,0,0,0-7,5.36,28.53,28.53,0,0,0,.82,7.78,7.48,7.48,0,0,0,1.62,2.93V798l.06,0a22.7,22.7,0,0,0-2.35.66l-.22.08a1.88,1.88,0,0,0-2,1.25l-1.46,14a2,2,0,0,0,.06.74V825.1h0a5.46,5.46,0,0,0,1,6.13c.52.43,1,.15.87-.16,0,0,.72.52,1-.08a.66.66,0,0,0,.91-.12s0,.16.41.13v19.12a5.11,5.11,0,0,0-1.19,3.44,5.83,5.83,0,0,0,0,.59h6.06a5.83,5.83,0,0,0,0-.59,5.68,5.68,0,0,0-.42-2.2V827.19a25,25,0,0,0,2.87,0v23.37a5.46,5.46,0,0,0-.84,3,5.83,5.83,0,0,0,0,.59h6.07a5.83,5.83,0,0,0,0-.59,5.5,5.5,0,0,0-.77-2.89V831a.63.63,0,0,0,.73,0c.25.6,1,.08,1,.08-.09.3.36.58.88.15a9.26,9.26,0,0,0,1.45-3.12A9.14,9.14,0,0,0,1520.71,825Zm-15.42,4h0Z"/><path class="cls-12" d="M1544.78,818.92h.07l-.07-10.9s0-.09,0-.13a1.45,1.45,0,0,0,0-.36l-1.89-13.68a2,2,0,0,0-2.43-1.09,6,6,0,0,0-1.58-.83,13.63,13.63,0,0,1-.23-1.78c.07-.17.15-.4.23-.65a7.49,7.49,0,0,0,1.73-3.13,28.68,28.68,0,0,0,.72-7.79,6,6,0,0,0-5.28-5.25l-.28,0a6.09,6.09,0,0,0-7,5.35,28.92,28.92,0,0,0,.83,7.78,7.32,7.32,0,0,0,1.61,2.93v2.54l.07,0c-1,.23-1.83.48-2.36.66l-.21.09a1.86,1.86,0,0,0-2,1.24c-.17,1.64-1.47,14-1.47,14a2.27,2.27,0,0,0,.06.74V819h0a5.5,5.5,0,0,0,1,6.13c.52.43,1,.15.88-.15,0,0,.72.52,1-.09a.66.66,0,0,0,.92-.12s0,.17.4.14V844a5.18,5.18,0,0,0-1.19,3.44,5.68,5.68,0,0,0,0,.59h6.07a5.68,5.68,0,0,0,0-.59,5.94,5.94,0,0,0-.42-2.2V821.07a27.48,27.48,0,0,0,2.87,0v23.37a5.43,5.43,0,0,0-.84,3,5.68,5.68,0,0,0,0,.59H1542a5.68,5.68,0,0,0,0-.59,5.49,5.49,0,0,0-.77-2.88V824.83a.66.66,0,0,0,.74,0c.24.6,1,.07,1,.07-.09.31.36.59.88.16a9.3,9.3,0,0,0,1.44-3.13A9.07,9.07,0,0,0,1544.78,818.92Zm-15.42,4Z"/><path class="cls-12" d="M1567.12,825h.07l-.07-10.9V814a2.17,2.17,0,0,0,0-.36s-1.67-12.07-1.9-13.67a1.94,1.94,0,0,0-2.42-1.1,6.14,6.14,0,0,0-1.59-.82,16.44,16.44,0,0,1-.23-1.78,4.53,4.53,0,0,0,.23-.66,7.38,7.38,0,0,0,1.74-3.13,28.26,28.26,0,0,0,.71-7.79,6,6,0,0,0-5.27-5.25l-.28,0a6.1,6.1,0,0,0-7,5.36,28.53,28.53,0,0,0,.82,7.78,7.61,7.61,0,0,0,1.62,2.93V798l.06,0a22.7,22.7,0,0,0-2.35.66l-.22.08a1.86,1.86,0,0,0-2,1.25c-.18,1.63-1.47,14-1.47,14a2,2,0,0,0,.06.74V825.1h0a9.09,9.09,0,0,0-.49,3,9.27,9.27,0,0,0,1.46,3.12c.52.43,1,.15.87-.16,0,0,.72.52,1-.08a.66.66,0,0,0,.91-.12s0,.16.41.13v19.12a5.11,5.11,0,0,0-1.19,3.44,5.83,5.83,0,0,0,0,.59h6.06a5.83,5.83,0,0,0,0-.59,5.68,5.68,0,0,0-.42-2.2V827.19a25,25,0,0,0,2.87,0v23.37a5.46,5.46,0,0,0-.84,3,5.83,5.83,0,0,0,0,.59h6.07a5.83,5.83,0,0,0,0-.59,5.5,5.5,0,0,0-.77-2.89V831a.63.63,0,0,0,.73,0c.25.6,1,.08,1,.08-.1.3.35.58.87.15a9.26,9.26,0,0,0,1.45-3.12A9.14,9.14,0,0,0,1567.12,825Zm-15.41,4Z"/><rect class="cls-12" x="1310.15" y="679.06" width="91.73" height="61.39" rx="2.93"/><rect class="cls-9" x="1312.1" y="681.79" width="87.84" height="55.94" rx="2.93"/><rect class="cls-26" x="1361.98" y="727.54" width="1.51" height="8.15" rx="0.76" transform="translate(-38.23 76.18) rotate(-3.16)"/><rect class="cls-27" x="1364.12" y="728.17" width="1.51" height="8.15" rx="0.76"/><rect class="cls-28" x="1365.95" y="728.17" width="1.51" height="8.15" rx="0.76" transform="matrix(1, 0.06, -0.06, 1, 49.7, -86.02)"/><rect class="cls-12" x="1360.88" y="730.73" width="8.33" height="8.33" rx="4.16"/><rect class="cls-12" x="1345.48" y="731.82" width="11.28" height="4.67" rx="2.33"/><rect class="cls-12" x="1525.59" y="681.05" width="17.41" height="74.47" rx="4.59"/><rect class="cls-29" x="1527.83" y="710.12" width="12.92" height="43.16" rx="2.34"/><path class="cls-12" d="M1487,777.54l5.69,0,.44-.37.49.36h1.68l4.45,0,.44-.37.49.36h1.67a5.38,5.38,0,0,0,.39-1.73,4.37,4.37,0,0,0-.46-1.38h0l-.11-11.2v0l-.07-7.27a.64.64,0,0,0,.37-.12c.24.54.91.07.91.07-.09.27.34.52.83.13a8.09,8.09,0,0,0,1.35-2.78,8,8,0,0,0-.49-2.69h0l-.1-9.81h0l-.12-12.52a1.74,1.74,0,0,0-1.8-1.28,2.74,2.74,0,0,0-.82-.41,23,23,0,0,0-2.53-.63l0-3.18v0a7.71,7.71,0,0,0,.59-1.14,19.5,19.5,0,0,0,.92-3.16,1.85,1.85,0,0,0,1.18-1.54c0-.8-.47-.84-.79-.76.08-.61.13-1.16.15-1.6.07-2.47-2.16-5.49-6.32-5.46a4.9,4.9,0,0,0-4.94,4.06,3.8,3.8,0,0,0,0,.88h0a.14.14,0,0,0-.14.14v.31a.14.14,0,0,0,.15.13h0c0,.11,0,.21,0,.29,0,.48.09,1.35.11,2.49s0,2.49.1,3.32a16.61,16.61,0,0,0,.56,3.69,2,2,0,0,0,1.35,1c-.07.52-.14.83-.14.83h0a5.59,5.59,0,0,0-1.57,1,1.7,1.7,0,0,0-1.53,1.26l.12,12.3h0l.1,9.7a5.83,5.83,0,0,0-1,1.46c-.34.84.89,2,.89,2s-.84,1.58-.24,1.71.64-.08.64-.08a.64.64,0,0,0,.86.1.46.46,0,0,0,.17.21l.08,7.47v0l.11,11.2h.1c-.79.42-2.88,1.53-3.59,2C1486.75,777,1487,777.54,1487,777.54Zm8.68-1.79h0a4.41,4.41,0,0,0-.46-1.39h.15l-.11-11.2v0l-.11-11.32c.88,0,1.82,0,2.71,0l.11,11.32v0l.11,11.2h.19C1497.73,774.62,1496.58,775.24,1495.68,775.75Z"/><path class="cls-12" d="M1493.45,708.9l0,0v0Z"/><path class="cls-12" d="M1764,628H1154a12,12,0,0,0-12,12V991a12,12,0,0,0,12,12h610a12,12,0,0,0,12-12V640A12,12,0,0,0,1764,628ZM1628,844a12,12,0,0,1-12,12H1295a12,12,0,0,1-12-12V674a12,12,0,0,1,12-12h321a12,12,0,0,1,12,12Z"/><path class="cls-12" d="M842.48,86.47a4.81,4.81,0,0,0-1.35-2.75L836,78.62l1.14-1.14A9.66,9.66,0,0,0,839,66.54l9.75-9.76a6.82,6.82,0,1,0-9.64-9.64l-10,10A9.65,9.65,0,0,0,819,59.33L645.38,233a9.59,9.59,0,0,0-7.32,2.78l-83.38,83.38a9.66,9.66,0,0,0-1.85,11l-28.1,36.51a3.65,3.65,0,0,0,5.12,5.12l36.78-28.31a9.68,9.68,0,0,0,10.17-2.2l83.38-83.39a9.59,9.59,0,0,0,2.78-6.18L829.22,85.43l2.83,2.83L775.33,145a4.81,4.81,0,0,0,6.8,6.81l59.56-59.56A4.81,4.81,0,0,0,842.48,86.47Z"/><path class="cls-12" d="M930.94,74.69a4.81,4.81,0,0,0-1.84-2.45l-6-4.06.9-1.33a9.65,9.65,0,0,0-.2-11.1l7.77-11.4a6.82,6.82,0,1,0-11.28-7.68l-8,11.68a9.62,9.62,0,0,0-9.55,4.06l-138.21,203a9.61,9.61,0,0,0-6.67,4.1l-66.38,97.47a9.66,9.66,0,0,0,.25,11.15L671,409.19a3.65,3.65,0,0,0,6,4.08l30.86-34.67a9.64,9.64,0,0,0,9.57-4.06l66.38-97.47a9.57,9.57,0,0,0,1.57-6.59L917.71,76.14,921,78.39,875.88,144.7a4.81,4.81,0,1,0,8,5.42L931.24,80.5A4.83,4.83,0,0,0,930.94,74.69Z"/><path class="cls-12" d="M988.47,205.67a4.71,4.71,0,0,0-3.06,0l-6.85,2.27-.51-1.52a9.65,9.65,0,0,0-8.94-6.58l-4.35-13.1A6.82,6.82,0,1,0,951.82,191l4.45,13.41a9.63,9.63,0,0,0-2.58,10.06L1031,447.54a9.58,9.58,0,0,0-.79,7.79l37.12,111.92a9.65,9.65,0,0,0,9,6.58l20,41.5a3.65,3.65,0,0,0,6.88-2.28l-8.81-45.58a9.65,9.65,0,0,0,2.6-10.07l-37.13-111.92a9.57,9.57,0,0,0-4.28-5.26l-74-223.16,3.8-1.27,25.26,76.14a4.81,4.81,0,1,0,9.14-3L993.27,209A4.82,4.82,0,0,0,988.47,205.67Z"/><path class="cls-5" d="M427,779c0,6.37-.27,12.19-.71,16.39s-1.05,6.81-1.71,6.81H279V755.8H424.58C425.91,755.8,427,766.24,427,779Z"/><path class="cls-12" d="M408.82,720A78.88,78.88,0,0,0,283,812l-19.64,26.77a140,140,0,0,1-30.1,30.11l-25.64,18.8a6.25,6.25,0,0,0-2.64,2.65L186.15,916A140.48,140.48,0,0,1,156,946.09L128.88,966a6,6,0,0,0-1,1.39,43.66,43.66,0,0,0-3.39,3c-12.44,12.44-14.92,30.13-5.54,39.52s27.07,6.9,39.52-5.54a43.66,43.66,0,0,0,3-3.39,6.31,6.31,0,0,0,1.39-1l19.92-27.16a140,140,0,0,1,30.11-30.11l25.63-18.8a6.33,6.33,0,0,0,1.53-1.12,6,6,0,0,0,1.11-1.53L260,895.64a140,140,0,0,1,30.11-30.11l26.77-19.64a78.87,78.87,0,0,0,92-125.85Zm-10,101.57a64.77,64.77,0,1,1,0-91.6A64.77,64.77,0,0,1,398.85,821.61Z"/><ellipse class="cls-30" cx="353.06" cy="775.81" rx="64.76" ry="64.77"/></g></g></svg>