<svg xmlns="http://www.w3.org/2000/svg" viewBox="0 0 322.24 581"><defs><style>.cls-1{fill:#84472e;}.cls-2{fill:#9f8d89;}.cls-3{fill:#642c15;}.cls-4{fill:#3b2e2d;}.cls-5{fill:#846f6a;}</style></defs><title>Podium</title><g id="Lager_2" data-name="Lager 2"><g id="Lager_1-2" data-name="Lager 1"><path class="cls-1" d="M292.83,476.57h-2.31a13.75,13.75,0,0,1-13.75-13.75V165.48h-.28L285,153.15a6.58,6.58,0,0,0-5.41-10.31H30a6.58,6.58,0,0,0-5.41,10.31l8.51,12.33h-.28V462.82a13.75,13.75,0,0,1-13.75,13.75H16.8A13.88,13.88,0,0,0,2.92,490.45h0a13.88,13.88,0,0,0,11,13.56V564.7A16.31,16.31,0,0,0,30.18,581h250a16.3,16.3,0,0,0,16.3-16.3V503.82a13.86,13.86,0,0,0,10.23-13.37h0A13.88,13.88,0,0,0,292.83,476.57Z"/><path class="cls-2" d="M282.5,55.85h0c2.61.57,3.31,4.12,1.17,5.88l-35.38,29-.18,0-9,41.29a3.22,3.22,0,0,1-3.76,2.59l-1.72-.37a3.23,3.23,0,0,1-2.35-3.92L240,90.15a3.42,3.42,0,0,1,1.18-2l38.72-31.7A3.08,3.08,0,0,1,282.5,55.85Z"/><polygon class="cls-3" points="282.73 156.72 26.9 156.72 19.72 145.77 289.91 145.77 282.73 156.72"/><path class="cls-1" d="M8.12,119.48H302.24a8.12,8.12,0,0,1,8.12,8.12v4.9a16.92,16.92,0,0,1-16.92,16.92H16.92A16.92,16.92,0,0,1,0,132.5v-4.9a8.12,8.12,0,0,1,8.12-8.12Z"/><rect class="cls-3" x="13.87" y="503.59" width="282.61" height="26.29"/><rect class="cls-3" x="59.88" y="180.09" width="189.87" height="286.99" rx="6.45"/><rect class="cls-1" x="90.55" y="212.95" width="128.53" height="221.27" rx="8.83"/><path class="cls-4" d="M268.56,86h0c-2.17-1.18-2.41-5.06-.55-8.93l25.18-52.25c2.09-4.35,6-6.95,8.45-5.62l5,2.7c2.45,1.33,2.39,6-.12,10.15L276.35,81.64C274.12,85.31,270.74,87.22,268.56,86Z"/><circle class="cls-5" cx="307.06" cy="15.19" r="15.19"/></g></g></svg>